<svg width="120" height="36" viewBox="0 0 120 36" fill="none" xmlns="http://www.w3.org/2000/svg">
<g clip-path="url(#clip0_2902_44474)">
<path d="M49.8925 12.0683C45.4902 12.0683 42.2241 12.9477 40.2357 14.2767C38.772 15.2556 40.3254 20.0313 42.9465 18.9159C44.5558 18.2308 46.4403 17.2998 49.207 17.2998C52.53 17.2998 54.4672 18.2292 55.1042 21.2707C48.6987 20.1454 38.3691 19.6682 38.3691 28.2954C38.3691 33.0268 42.0417 34.8966 46.9238 34.8966C47.0393 34.8966 47.1553 34.8919 47.2724 34.8919C50.5869 34.8919 53.3372 34.249 55.4369 32.671C55.6304 34.943 59.1026 34.6236 59.1026 34.6236C60.762 34.6236 61.0156 33.7577 61.0156 32.9206V23.9141C61.0151 16.3861 58.3275 12.0683 49.8925 12.0683ZM49.6889 29.9578C46.4957 30.2563 44.6185 29.0044 45.3694 27.3321C46.9254 23.8661 55.3415 25.715 55.3415 25.715C55.3415 27.4374 53.7243 29.5801 49.6889 29.9578Z" fill="white"/>
<path d="M77.7015 12.2464C73.3709 11.8114 71.2069 13.7171 69.7943 16.5705C69.4331 11.7275 65.1267 12.4949 65.1267 12.4949C64.2789 12.4949 63.5918 13.1738 63.5918 14.011V14.8982V14.8992V31.292C63.5918 33.1581 63.5918 34.6715 67.0128 34.6715H67.6234C69.5122 34.6715 70.6511 33.6119 70.6174 31.8703L70.5594 28.8586L70.4982 23.9276C70.4982 19.415 73.3271 18.3741 76.9074 18.5642C78.0627 18.6257 78.9184 18.2068 78.9743 17.0534L79.1636 13.764C79.1721 12.783 78.5172 12.3282 77.7015 12.2464Z" fill="white"/>
<path d="M32.6685 4.49442H32.3015C28.8473 4.49442 28.6722 5.97501 28.6722 7.00913V7.87706V8.13651H28.6701V11.3353V12.8455H8.19765C8.19765 12.8455 8.21399 12.5601 8.19765 11.3785V7.00913C8.19765 5.97553 8.17919 4.49442 4.78557 4.49442H3.9841C0.612623 4.49442 0.572021 5.97501 0.572021 7.00913V32.1839C0.572021 33.2175 0.894721 34.484 3.9841 34.484H4.78505C8.03946 34.484 8.19712 33.217 8.19712 32.1839V20.4293V18.9153H28.6696V20.422V27.3582H28.6717V32.1839C28.6717 33.2175 28.793 34.484 32.0838 34.484H32.8847C36.1048 34.484 36.2973 33.217 36.2973 32.1839V11.7843V7.00861C36.2978 5.97501 36.1259 4.49442 32.6685 4.49442Z" fill="white"/>
<path d="M91.55 12.5559H87.288V9.21335C87.288 8.28863 87.1514 7.1102 84.7254 7.1102H83.7994C81.376 7.1102 81.0496 8.20892 81.0243 9.31963L80.4654 28.807C80.3752 32.0172 82.9848 34.6679 86.2355 34.6679H90.6805C92.3937 34.6679 93.462 33.8687 93.462 31.9229V31.1716C93.462 29.8963 92.7538 28.9039 90.2577 28.9039L89.0101 28.8627C87.4224 28.7992 87.0739 27.7379 87.0997 26.6012L87.2885 18.0969H91.5506C92.4865 18.0969 93.462 17.876 93.462 15.7791V14.8737C93.4614 13.142 92.9479 12.5559 91.55 12.5559Z" fill="white"/>
<path d="M109.541 11.9729C107.747 11.9729 104.713 12.5824 102.557 14.8497V6.90858C102.557 5.81194 102.461 4.49442 99.4636 4.49442H98.7359C95.7984 4.49442 95.6423 5.81194 95.6423 6.90858V32.2573C95.6423 33.354 95.897 34.6715 98.7359 34.6715H99.4636C102.249 34.6715 102.557 33.354 102.557 32.2573V23.6285C102.56 18.2558 106.615 17.589 107.84 17.5785C111.266 17.5494 112.684 18.4564 112.684 26.5684V32.3761C112.684 33.4071 112.874 34.6715 115.658 34.6715H116.357C119.11 34.6715 119.316 33.4243 119.332 32.4037L119.493 23.5665C119.493 13.5811 113.99 11.9729 109.541 11.9729Z" fill="white"/>
<path d="M48.9017 5.16388C48.9017 7.38164 47.0815 9.18003 44.8368 9.18003C42.5922 9.18003 40.772 7.38164 40.772 5.16388C40.772 2.94612 42.5922 1.14774 44.8368 1.14774C47.0815 1.14774 48.9017 2.9456 48.9017 5.16388Z" fill="#F28DBA"/>
<path d="M59.7747 4.97684C59.7747 7.1946 57.9545 8.99299 55.7099 8.99299C53.4652 8.99299 51.645 7.1946 51.645 4.97684C51.645 2.75908 53.4652 0.960693 55.7099 0.960693C57.9545 0.960693 59.7747 2.75908 59.7747 4.97684Z" fill="#F2757C"/>
</g>
<defs>
<clipPath id="clip0_2902_44474">
<rect width="120" height="35.503" fill="white" transform="translate(0 0.248535)"/>
</clipPath>
</defs>
</svg>
