<svg height='100px' width='100px'  fill="#000000" xmlns="http://www.w3.org/2000/svg" xmlns:xlink="http://www.w3.org/1999/xlink" xml:space="preserve" version="1.1" style="shape-rendering:geometricPrecision;text-rendering:geometricPrecision;image-rendering:optimizeQuality;" viewBox="0 0 20.7 21.347" x="0px" y="0px" fill-rule="evenodd" clip-rule="evenodd"><defs><style type="text/css">
   
    .fil0 {fill:#000000;fill-rule:nonzero}
   
  </style></defs><g><path class="fil0" d="M19.406 21.347l0 -10.997c0,-2.49 -1.019,-4.754 -2.66,-6.395 -1.642,-1.642 -3.906,-2.661 -6.396,-2.661 -2.49,0 -4.754,1.019 -6.395,2.661 -1.642,1.641 -2.661,3.905 -2.661,6.395l0 10.997 -1.294 0 0 -10.997c0,-2.847 1.164,-5.435 3.04,-7.31 1.875,-1.876 4.463,-3.04 7.31,-3.04 2.847,0 5.435,1.164 7.31,3.04 1.876,1.875 3.04,4.463 3.04,7.31l0 10.997 -1.294 0zm-12.741 -9.488c0.336,-0.84 0.742,-1.419 1.132,-1.974 0.54,-0.769 1.048,-1.491 1.268,-2.814 0.015,-0.088 0.098,-0.147 0.186,-0.132 0.019,0.003 0.036,0.009 0.052,0.018 0.196,0.094 3.229,1.591 3.872,4.804 0.049,-0.079 0.095,-0.173 0.137,-0.28 0.098,-0.25 0.169,-0.561 0.197,-0.9 0.006,-0.089 0.084,-0.156 0.173,-0.149 0.052,0.004 0.096,0.032 0.122,0.073 0.219,0.305 0.742,1.527 0.493,2.933 -0.146,0.83 -0.557,1.727 -1.448,2.543 -0.031,0.029 -0.07,0.042 -0.109,0.042l-1.982 0.001c-0.089,0 -0.162,-0.072 -0.162,-0.161 0,-0.031 0.009,-0.06 0.023,-0.084 0.188,-0.364 0.337,-1.181 0.311,-2.004 -0.014,-0.418 -0.073,-0.835 -0.197,-1.187 -0.089,0.592 -0.256,1.202 -0.491,1.757 -0.283,0.668 -0.666,1.257 -1.132,1.642 -0.03,0.025 -0.066,0.037 -0.103,0.037l-1.231 0c-0.039,0 -0.075,-0.013 -0.103,-0.037 -0.529,-0.396 -1.047,-0.996 -1.248,-1.823 -0.155,-0.635 -0.122,-1.401 0.24,-2.305zm-1.125 6.759c-0.357,0 -0.647,-0.289 -0.647,-0.647 0,-0.357 0.29,-0.646 0.647,-0.646l9.62 0c0.357,0 0.647,0.289 0.647,0.646 0,0.358 -0.29,0.647 -0.647,0.647l-9.62 0z"></path></g></svg>