<svg height='100px' width='100px'  fill="#5d606c" xmlns:x="http://ns.adobe.com/Extensibility/1.0/" xmlns:i="http://ns.adobe.com/AdobeIllustrator/10.0/" xmlns:graph="http://ns.adobe.com/Graphs/1.0/" xmlns="http://www.w3.org/2000/svg" xmlns:xlink="http://www.w3.org/1999/xlink" version="1.1" x="0px" y="0px" viewBox="0 0 100 100" style="enable-background:new 0 0 100 100;" xml:space="preserve"><g><g i:extraneous="self"><g><path d="M86.8,13.2H72.9v-4c0-1.8-1.5-3.3-3.3-3.3c-1.8,0-3.3,1.5-3.3,3.3v4H33.8v-4c0-1.8-1.5-3.3-3.3-3.3s-3.3,1.5-3.3,3.3v4     H13.2C7.3,13.2,2.5,18,2.5,23.8v59.6c0,5.9,4.8,10.7,10.7,10.7h73.6c5.9,0,10.7-4.8,10.7-10.7V23.8C97.5,18,92.7,13.2,86.8,13.2z      M90.9,83.4c0,2.2-1.8,4-4.1,4H13.2c-2.2,0-4.1-1.8-4.1-4V41h81.7V83.4z M90.9,34.3H9.1V23.8c0-2.2,1.8-4,4.1-4h13.9v4     c0,1.8,1.5,3.3,3.3,3.3s3.3-1.5,3.3-3.3v-4h32.5v4c0,1.8,1.5,3.3,3.3,3.3c1.8,0,3.3-1.5,3.3-3.3v-4h13.9c2.2,0,4.1,1.8,4.1,4     V34.3z"></path><path d="M24.7,61h7.7c0.9,0,1.7-0.8,1.7-1.7v-5.5c0-0.9-0.8-1.7-1.7-1.7h-7.7c-0.9,0-1.7,0.8-1.7,1.7v5.5     C22.9,60.2,23.7,61,24.7,61z"></path><path d="M46.2,61h7.7c0.9,0,1.7-0.8,1.7-1.7v-5.5c0-0.9-0.8-1.7-1.7-1.7h-7.7c-0.9,0-1.7,0.8-1.7,1.7v5.5     C44.4,60.2,45.2,61,46.2,61z"></path><path d="M67.6,61h7.7c0.9,0,1.7-0.8,1.7-1.7v-5.5c0-0.9-0.8-1.7-1.7-1.7h-7.7c-0.9,0-1.7,0.8-1.7,1.7v5.5     C65.9,60.2,66.7,61,67.6,61z"></path><path d="M24.7,76.6h7.7c0.9,0,1.7-0.8,1.7-1.7v-5.5c0-0.9-0.8-1.7-1.7-1.7h-7.7c-0.9,0-1.7,0.8-1.7,1.7v5.5     C22.9,75.8,23.7,76.6,24.7,76.6z"></path><path d="M46.2,76.6h7.7c0.9,0,1.7-0.8,1.7-1.7v-5.5c0-0.9-0.8-1.7-1.7-1.7h-7.7c-0.9,0-1.7,0.8-1.7,1.7v5.5     C44.4,75.8,45.2,76.6,46.2,76.6z"></path><path d="M67.6,76.6h7.7c0.9,0,1.7-0.8,1.7-1.7v-5.5c0-0.9-0.8-1.7-1.7-1.7h-7.7c-0.9,0-1.7,0.8-1.7,1.7v5.5     C65.9,75.8,66.7,76.6,67.6,76.6z"></path></g></g></g></svg>