<?xml version="1.0" standalone="no"?>
<!DOCTYPE svg PUBLIC "-//W3C//DTD SVG 1.1//EN" "http://www.w3.org/Graphics/SVG/1.1/DTD/svg11.dtd" >
<svg xmlns="http://www.w3.org/2000/svg">
<metadata>Generated by IcoMoon</metadata>
<defs>
<font id="icomoon" horiz-adv-x="1024">
<font-face units-per-em="1024" ascent="960" descent="-64" />
<missing-glyph horiz-adv-x="1024" />
<glyph unicode="&#x20;" horiz-adv-x="512" d="" />
<glyph unicode="&#xe900;" glyph-name="books" horiz-adv-x="885" d="M873.515 749.385c-3.963 3.219-9.071 5.17-14.633 5.17-3.316 0-6.471-0.693-9.327-1.942l0.15 0.058-380.753-164.837c-16.476-6.768-35.6-10.696-55.641-10.696-1.021 0-2.039 0.010-3.055 0.030l0.152-0.002c-0.021 0-0.045 0-0.069 0-29.474 0-57.552 5.977-83.087 16.784l1.399-0.526c-7.101 2.994-13.205 6.426-18.863 10.444l0.301-0.203c1.664 0.811 3.541 1.664 5.761 2.517l346.317 149.69 51.674-22.103v64.774c0.004 0.193 0.007 0.421 0.007 0.649 0 9.429-4.301 17.854-11.049 23.418l-0.052 0.041c-3.956 3.216-9.057 5.164-14.612 5.164-3.308 0-6.456-0.691-9.305-1.936l0.15 0.058-381.051-164.837c-11.798-4.488-21.906-10.947-30.417-19.065l0.036 0.034c-9.481-9.401-15.394-22.388-15.532-36.756v-0.026c-0.011-0.159-0.017-0.346-0.017-0.533s0.006-0.374 0.018-0.558l-0.001 0.025v-580.325c0-0.213 0-0.512 0-0.768s0-0.256 0-0.469v-0.725c0.655-17.033 8.576-32.092 20.732-42.255l0.091-0.074c36.32-27.224 82.14-43.593 131.785-43.593 1.944 0 3.883 0.025 5.816 0.075l-0.285-0.006c0.813-0.012 1.773-0.019 2.735-0.019 26.699 0 52.158 5.307 75.381 14.921l-1.308-0.48 380.795 165.008c9.921 4.704 16.659 14.637 16.659 26.145 0 0.35-0.006 0.698-0.019 1.044l0.001-0.050v582.586c0.004 0.188 0.006 0.409 0.006 0.631 0 9.405-4.208 17.827-10.844 23.485l-0.043 0.036zM632.040 859.774c-0.373 8.789-4.434 16.56-10.667 21.854l-0.043 0.036c-3.971 3.227-9.090 5.183-14.665 5.183-3.369 0-6.572-0.714-9.464-1.998l0.149 0.059-380.539-164.837c-16.527-6.766-35.708-10.693-55.805-10.693-0.963 0-1.924 0.009-2.883 0.027l0.144-0.002c-29.499 0.021-57.598 5.996-83.166 16.786l1.409-0.528c-7.103 2.991-13.207 6.409-18.873 10.406l0.311-0.208c1.664 0.811 3.584 1.664 5.761 2.517l346.274 149.903 51.632-22.103v64.603c0.003 0.155 0.004 0.338 0.004 0.521 0 9.486-4.334 17.959-11.131 23.546l-0.053 0.042c-3.958 3.191-9.049 5.123-14.59 5.123-3.316 0-6.471-0.691-9.327-1.938l0.15 0.058-380.838-164.795c-11.793-4.457-21.892-10.92-30.369-19.060l0.030 0.029c-9.515-9.411-15.438-22.438-15.533-36.85v-0.018c-0.012-0.16-0.019-0.346-0.019-0.533s0.007-0.374 0.020-0.558l-0.001 0.025v-580.325c0-0.213 0-0.555 0-0.768s0-0.213 0-0.853v-0.853c0.611-17.017 8.546-32.064 20.728-42.168l0.095-0.076c36.313-26.973 82.023-43.179 131.52-43.179 2.113 0 4.218 0.030 6.318 0.088l-0.309-0.007c15.825 0.203 31.128 1.902 45.935 4.962l-1.556-0.269v531.082c-0.007 0.449-0.011 0.979-0.011 1.511 0 28.011 11.426 53.353 29.873 71.619l0.008 0.008c13.064 12.683 28.682 22.817 46 29.549l0.938 0.321z" />
<glyph unicode="&#xe901;" glyph-name="calendar" d="M759.467 396.8h-256v-256h256zM708.267 960v-102.4h-409.6v102.4h-102.4v-102.4h-51.2c-56.277-0.024-101.889-45.651-101.889-101.931 0-0.165 0-0.33 0.001-0.495v0.025l-0.512-716.799c0-56.554 45.846-102.4 102.4-102.4v0h716.799c56.486 0.169 102.231 45.914 102.4 102.384v716.815c-0.169 56.486-45.914 102.231-102.384 102.4h-51.216v102.4zM861.867 38.4h-716.799v563.199h716.799z" />
<glyph unicode="&#xe902;" glyph-name="chat" d="M737.027 513.45c0 182.505-165.193 331.014-368.579 331.014s-368.546-148.509-368.546-331.014c0.893-90.918 40.388-172.437 102.851-229.087l0.262-0.234-35.748-101.033c-7.367-20.781 4.163-32.477 25.572-26.001l131.031 39.647c5.254 1.467 9.792 4.037 13.539 7.456l-0.026-0.023c38.913-13.737 83.783-21.674 130.509-21.674 0.23 0 0.46 0 0.69 0.001h-0.036c203.154-0.033 368.48 148.443 368.48 330.948zM943.915 190.166c-0.456 1.741-0.93 3.172-1.481 4.564l0.094-0.268c50.084 54.42 80.931 127.224 81.374 207.228v0.090c0 169.72-142.43 309.473-325.596 328.007 47.923-58.441 77.090-133.867 77.442-216.095v-0.077c0-186.734-153.993-341.52-352.853-365.705 63.932-47.474 144.406-75.998 231.542-75.998 0.938 0 1.876 0.003 2.814 0.010l-0.144-0.001c0.281-0.001 0.614-0.001 0.947-0.001 53.359 0 104.281 10.436 150.835 29.379l-2.679-0.964c1.123-0.495 2.312-0.925 3.568-1.387l134.699-45.263c21.211-7.136 33.997 4.493 28.413 25.77z" />
<glyph unicode="&#xe903;" glyph-name="game" d="M684.086 724.505l34.141 135.91h-341.522l307.227-135.91zM286.188 847.396v-358.035l359.956 198.93zM286.188 45.186l359.495 119.050-359.495 238.447v-357.613zM412.074 35.777h303.388l-30.338 90.594-272.934-90.709zM676.328 202.218v447.093l-367.829-203.193 367.713-243.862zM725.101 638.711v-423.206l232.11 230.882-232.11 192.401zM755.094 71.377l132.3 236.911-158.76-157.953 26.46-78.958zM757.321 815.675l-29.225-116.286 178.883-148.276zM237.416 104.981v318.749h-178.039l178.039-318.749zM59.377 472.271h178.039v318.749zM746.299 908.841c9.054-0.001 16.957-4.928 21.174-12.247l0.063-0.118 246.935-436.571c1.946-3.404 3.094-7.482 3.094-11.828s-1.147-8.424-3.156-11.948l0.063 0.118-243.708-436.609c-4.255-7.502-12.188-12.481-21.283-12.481-0.011 0-0.022 0-0.032 0h-487.645c-0.009 0-0.020 0-0.031 0-9.095 0-17.028 4.979-21.22 12.361l-0.063 0.12-243.862 436.571c-1.926 3.39-3.062 7.448-3.062 11.77s1.135 8.38 3.125 11.891l-0.063-0.119 243.862 436.609c4.255 7.502 12.188 12.481 21.283 12.481 0.011 0 0.022 0 0.032 0h-0.002z" />
<glyph unicode="&#xe904;" glyph-name="plus" d="M438.848-64v438.848h-438.848v146.304h438.848v438.848h146.304v-438.848h438.848v-146.304h-438.848v-438.848z" />
<glyph unicode="&#xe905;" glyph-name="settings" d="M32.141 357.864c-19.543-13.876-32.141-36.424-32.141-61.914 0-9.225 1.65-18.064 4.671-26.24l-0.17 0.525c7.745-22.461 15.492-40.858 24.254-58.666l-1.324 2.976c13.010-25.676 39.206-42.969 69.442-42.969 5.202 0 10.285 0.512 15.2 1.488l-0.494-0.082c2.918 0.262 6.313 0.411 9.742 0.411 63.944 0 115.781-51.837 115.781-115.781 0-3.496-0.155-6.956-0.458-10.373l0.032 0.442c-0.86-4.34-1.352-9.329-1.352-14.434 0-30.24 17.264-56.448 42.473-69.305l0.441-0.204c14.854-7.511 33.247-15.323 52.158-22.042l3.531-1.094c7.651-2.851 16.49-4.501 25.715-4.501 25.49 0 48.038 12.599 61.756 31.908l0.158 0.234c21.33 26.545 53.792 43.392 90.187 43.392s68.859-16.847 90.014-43.167l0.175-0.225c13.876-19.543 36.424-32.141 61.914-32.141 9.225 0 18.064 1.65 26.24 4.671l-0.525-0.17c22.542 7.892 40.931 15.704 58.748 24.501l-3.058-1.366c25.652 13.046 42.92 39.247 42.92 69.481 0 5.115-0.494 10.114-1.438 14.953l0.080-0.491c-0.272 2.976-0.427 6.438-0.427 9.935 0 63.944 51.837 115.781 115.781 115.781 3.447 0 6.86-0.151 10.231-0.446l-0.437 0.031c4.396-0.882 9.45-1.387 14.621-1.387 30.254 0 56.472 17.28 69.323 42.508l0.204 0.441c7.503 14.845 15.316 33.238 22.037 52.146l1.099 3.543c2.851 7.651 4.501 16.49 4.501 25.715 0 25.49-12.599 48.038-31.908 61.756l-0.234 0.158c-26.651 21.271-43.578 53.753-43.578 90.187s16.927 68.917 43.347 90.010l0.231 0.178c19.543 13.876 32.141 36.424 32.141 61.914 0 9.225-1.65 18.064-4.671 26.24l0.17-0.525c-7.817 22.36-15.629 40.682-24.454 58.412l1.319-2.927c-13.095 25.762-39.403 43.105-69.762 43.105-5.087 0-10.060-0.487-14.876-1.417l0.49 0.079c-3.030-0.283-6.553-0.444-10.114-0.444-63.774 0-115.474 51.699-115.474 115.474 0 3.544 0.16 7.051 0.472 10.513l-0.033-0.446c0.889 4.418 1.398 9.497 1.398 14.695 0 30.212-17.188 56.411-42.318 69.351l-0.437 0.205c-14.756 7.431-33.147 15.242-52.039 21.997l-3.65 1.139c-7.651 2.851-16.49 4.501-25.715 4.501-25.49 0-48.038-12.599-61.756-31.908l-0.158-0.234c-21.261-26.668-53.747-43.609-90.187-43.609s-68.927 16.941-90.009 43.377l-0.179 0.232c-13.943 19.512-36.519 32.080-62.030 32.080-9.18 0-17.98-1.628-26.127-4.609l0.528 0.169c-22.767-7.997-41.224-15.808-59.135-24.566l3.24 1.431c-25.659-13.129-42.918-39.383-42.918-69.668 0-5.121 0.493-10.126 1.435-14.971l-0.080 0.492c0.444-3.701 0.697-7.987 0.697-12.333 0-31.223-13.063-59.395-34.023-79.348l-0.045-0.043c-19.787-21.036-47.805-34.137-78.882-34.137-4.526 0-8.986 0.278-13.366 0.818l0.525-0.053c-4.325 0.851-9.298 1.338-14.385 1.338-30.359 0-56.667-17.343-69.558-42.662l-0.205-0.443c-7.507-14.802-15.318-33.125-22.040-51.964l-1.096-3.52c-2.851-7.651-4.501-16.49-4.501-25.715 0-25.49 12.599-48.038 31.908-61.756l0.234-0.158c26.545-21.33 43.392-53.792 43.392-90.187s-16.847-68.859-43.167-90.014l-0.225-0.175zM511.846 648.184c0.015 0 0.033 0 0.051 0 110.531 0 200.133-89.603 200.133-200.133s-89.603-200.133-200.133-200.133c-110.495 0-200.075 89.545-200.133 200.025v0.006c0.058 110.52 89.579 200.112 200.065 200.287h0.017z" />
<glyph unicode="&#xe906;" glyph-name="user" d="M512 960c-282.728-0.102-511.898-229.271-512-511.99v-0.010c0.102-282.728 229.271-511.898 511.99-512h0.010c282.728 0.102 511.898 229.271 512 511.99v0.010c-0.102 282.728-229.271 511.898-511.99 512h-0.010zM512 806.4c0.061 0 0.133 0 0.205 0 84.718 0 153.395-68.677 153.395-153.395 0-0.072 0-0.144 0-0.216v0.011c0-0.061 0-0.133 0-0.205 0-84.718-68.677-153.395-153.395-153.395-0.072 0-0.144 0-0.216 0h0.011c-0.061 0-0.133 0-0.205 0-84.718 0-153.395 68.677-153.395 153.395 0 0.072 0 0.144 0 0.216v-0.011c0 0.061 0 0.133 0 0.205 0 84.718 68.677 153.395 153.395 153.395 0.072 0 0.144 0 0.216 0h-0.011zM512 79.36c0 0-0.001 0-0.002 0-127.681 0-240.201 64.912-306.36 163.536l-0.839 1.328c1.536 101.888 204.8 157.696 307.2 157.696 101.888 0 305.664-55.808 307.2-157.696-66.997-99.952-179.517-164.864-307.198-164.864-0.001 0-0.001 0-0.002 0v0z" />
<glyph unicode="&#xe907;" glyph-name="caret-right" horiz-adv-x="631" d="M0.232 55.756l392.244 392.244-392.244 392.244 119.379 119.379 511.623-511.623-511.623-511.623z" />
<glyph unicode="&#xe908;" glyph-name="close" d="M1000.988 936.988c-13.691 14.365-32.97 23.299-54.336 23.299s-40.646-8.934-54.307-23.269l-0.029-0.030-380.535-380.535-380.535 380.535c-13.34 11.454-30.817 18.426-49.921 18.426-42.436 0-76.839-34.402-76.839-76.839 0-19.16 7.013-36.683 18.611-50.139l-0.084 0.1 380.535-380.535-380.535-380.535c-13.906-13.906-22.506-33.117-22.506-54.336 0-42.439 34.403-76.843 76.843-76.843 21.22 0 40.43 8.601 54.336 22.506l380.535 380.535 380.535-380.535c13.906-13.906 33.117-22.506 54.336-22.506 42.439 0 76.843 34.403 76.843 76.843 0 21.22-8.601 40.43-22.506 54.336l-380.535 380.535 380.535 380.535c14.167 13.664 22.965 32.813 22.965 54.016 0 21.417-8.976 40.738-23.371 54.405l-0.033 0.031z" />
<glyph unicode="&#xe909;" glyph-name="icon_dots" d="M130.405 571.5c-68.111 0-123.509-55.406-123.509-123.5s55.397-123.5 123.509-123.5c68.094 0 123.491 55.406 123.491 123.5s-55.397 123.5-123.491 123.5zM130.405 359.592c-48.749 0-88.416 39.659-88.416 88.408s39.667 88.408 88.416 88.408 88.399-39.659 88.399-88.408-39.65-88.408-88.399-88.408zM518.888 571.5c-68.094 0-123.491-55.406-123.491-123.5s55.397-123.5 123.491-123.5c68.111 0 123.509 55.406 123.509 123.5s-55.397 123.5-123.509 123.5zM518.888 359.592c-48.749 0-88.399 39.659-88.399 88.408s39.65 88.408 88.399 88.408 88.416-39.659 88.416-88.408-39.667-88.408-88.416-88.408zM907.388 571.5c-68.094 0-123.491-55.406-123.491-123.5s55.397-123.5 123.491-123.5c68.111 0 123.509 55.406 123.509 123.5s-55.397 123.5-123.509 123.5zM907.388 359.592c-48.749 0-88.399 39.659-88.399 88.408s39.65 88.408 88.399 88.408 88.416-39.659 88.416-88.408-39.667-88.408-88.416-88.408z" />
<glyph unicode="&#xe90a;" glyph-name="icon_bookmark" d="M137.846 920.615v-945.231c0-15.34 8.921-29.283 22.842-35.721 5.277-2.462 10.929-3.663 16.542-3.663 9.158 0 18.235 3.19 25.483 9.354l300.19 254.719 319.252-255.448c11.815-9.433 28.023-11.263 41.669-4.746 13.646 6.558 22.331 20.362 22.331 35.506v945.231c0 21.74-17.644 39.385-39.385 39.385h-669.539c-21.74 0-39.385-17.644-39.385-39.385z" />
<glyph unicode="&#xe90b;" glyph-name="icon_check" d="M409.973 193.097l-1.443 1.263-1.323-1.263-223.534 223.547 79.481 79.426 145.375-145.624 352.316 352.457 79.421-79.486-430.294-430.319zM511.94 960c-282.634 0-511.94-229.319-511.94-512.030s229.306-511.97 511.94-511.97c282.694 0 512.060 229.259 512.060 511.97s-229.366 512.030-512.060 512.030v0z" />
<glyph unicode="&#xe90c;" glyph-name="icon_close" d="M512 960c-283.022 0-512-228.978-512-512s228.978-512 512-512 512 228.978 512 512c0 283.022-228.978 512-512 512zM512-7.111c-250.311 0-455.111 204.8-455.111 455.111s204.8 455.111 455.111 455.111 455.111-204.8 455.111-455.111c0-250.311-204.8-455.111-455.111-455.111zM688.356 624.356c-11.378 11.378-28.444 11.378-39.822 0l-136.533-136.533-136.533 136.533c-11.378 11.378-28.444 11.378-39.822 0s-11.378-28.444 0-39.822l136.533-136.533-136.533-136.533c-11.378-11.378-11.378-28.444 0-39.822 5.689-5.689 12.8-8.533 19.911-8.533s14.222 2.844 19.911 8.533l136.533 136.533 136.533-136.533c5.689-5.689 12.8-8.533 19.911-8.533s14.222 2.844 19.911 8.533c11.378 11.378 11.378 28.444 0 39.822l-136.533 136.533 136.533 136.533c11.378 11.378 11.378 28.444 0 39.822z" />
<glyph unicode="&#xe90d;" glyph-name="icon_emoji" d="M511.989 960c-282.727 0-511.989-229.262-511.989-512.011 0-282.794 229.262-511.989 511.989-511.989 282.749 0 512.011 229.194 512.011 511.989 0 282.749-229.262 512.011-512.011 512.011zM700.997 704.591c44.953 0 81.397-36.387 81.397-81.317 0-45.010-36.443-81.397-81.397-81.397-44.931 0-81.317 36.387-81.317 81.397 0 44.931 36.387 81.317 81.317 81.317zM322.97 704.591c44.931 0 81.373-36.387 81.373-81.317 0-45.010-36.443-81.397-81.373-81.397s-81.373 36.387-81.373 81.397c0 44.931 36.454 81.317 81.373 81.317zM511.989 93.708c-155.898 0-284.364 116.941-302.911 267.867h605.844c-18.546-150.914-146.978-267.867-302.933-267.867z" />
<glyph unicode="&#xe90e;" glyph-name="icon_gif" d="M82.944 152.544c-18.944 0-35.040 6.656-48.288 20-13.248 13.312-19.904 29.312-19.904 47.936v155.456c0 18.944 6.688 35.040 20 48.288 13.344 13.248 29.408 19.904 48.192 19.904 18.944 0 35.008-6.688 48.192-20 13.184-13.344 19.776-29.408 19.776-48.192v-32.512h-44.576v33.408c0 6.816-2.4 12.672-7.264 17.504s-10.688 7.296-17.504 7.296c-6.848 0-12.64-2.432-17.408-7.296-4.736-4.832-7.168-10.688-7.168-17.504v-155.904c0-6.816 2.4-12.64 7.168-17.408 4.768-4.736 10.56-7.168 17.408-7.168 6.816 0 12.64 2.368 17.504 7.168 4.832 4.736 7.264 10.528 7.264 17.344v55.968h-23.84v43.2h68.416v-99.552c0-18.944-6.688-35.008-20-48.192-13.344-13.152-29.312-19.744-47.968-19.744zM231.136 156.16h-42.976v284.8h42.976v-284.8zM312.512 156.16h-42.976v284.992h122.272v-43.2h-79.296v-77.728h57.952v-43.2h-57.952v-120.864zM686.4 960h-567.36v-421.408h32v-0.128h333.952v-470.688l-365.952-0.128v-131.648h785.92v804.576z" />
<glyph unicode="&#xe90f;" glyph-name="icon_upload" d="M543.742 262.626v529.458l125.699-116.811 69.833 73.642-212.037 198.071c-19.045 17.776-49.518 17.776-69.833 0l-210.768-198.071 69.833-73.642 125.699 116.811v-529.458h101.575zM57.453 549.575v-524.38c0-49.518 39.36-88.878 88.878-88.878h693.248c49.518 0 88.878 39.36 88.878 88.878v524.38c0 49.518-39.36 88.878-88.878 88.878h-168.868v-101.575h156.171v-498.986h-667.854v498.986h156.171v101.575h-168.868c-49.518 0-88.878-39.36-88.878-88.878z" />
<glyph unicode="&#xe910;" glyph-name="icon_delete" d="M886.011 671.327h-374.011q-189.006 0-378.011 0.14c-12.34 0-17.721-1.66-15.16-16.88 7.48-44.221 13.040-88.783 19.221-133.204q13-92.503 25.941-185.085c8.34-59.222 17.040-118.423 25.321-177.645 9.4-67.162 18.481-134.344 27.781-201.506 2-14.5 9.4-21.181 25.221-21.141q269.448 0.62 538.876 0.28c17.601 0 23.241 4.78 25.721 22.141q9.3 65.142 18.241 130.324c12.24 88.903 24.221 177.825 36.621 266.708q20.681 148.104 41.681 296.149c2.76 19.721 2.34 19.721-17.441 19.721zM942.793 726.628c-1 18.961 0 38.001-0.3 57.042-0.3 24.421-10.44 44.761-32.001 55.562-13.77 6.747-29.912 10.876-46.971 11.317l-0.15 0.003c-47.501 1.44-95.063 0.78-142.604 0.36-11.24 0-15.68 2.68-15.8 15.1-0.52 52.002-43.341 93.743-95.303 93.863q-98.343 0.26-196.686 0c-50.141-0.14-93.563-42.121-94.223-92.003-0.18-13.22-4-17.181-17.181-17.020-49.041 0.6-98.003 0.4-147.124 0-46.001-0.4-73.282-28.541-73.222-74.422 0-15.020 0-30.001 0-45.041 0-20.181 0-20.221 20.641-20.241h408.132c138.004 0 277.428 0.12 416.012-0.22 12-0.020 17.461 2.6 16.78 15.7z" />
<glyph unicode="&#xe911;" glyph-name="icon_edit" d="M788.757 960l-118.486-118.486 235.243-235.243 118.486 118.486-235.243 235.243zM630.919 802.162l-528-528 235.243-235.243 528 528-235.243 235.243zM67.027 231.351l-67.027-295.351 295.351 67.027-228.324 228.324z" />
<glyph unicode="&#xe912;" glyph-name="icon_fire" d="M779.364 7.065c-28.030-21.562-64.685-42.045-106.73-57.138-8.625-3.234-17.249 5.39-15.093 14.015 6.468 26.952 10.781 54.982 10.781 84.090 0 149.853-105.652 277.067-142.307 318.034-7.547 7.547-19.405 7.547-25.874 0-36.655-39.889-142.307-167.102-142.307-318.034 0-33.42 5.39-66.841 14.015-97.027 2.156-8.625-5.39-17.249-14.015-15.093-72.231 19.405-130.448 50.67-152.009 67.919-175.727 148.775-114.276 382.718-32.342 505.62 90.559 139.072 198.367 257.661 192.976 423.685-1.078 19.405 20.484 32.342 37.733 23.718 136.916-68.997 230.709-218.85 255.505-338.517 36.655 34.499 51.748 88.403 52.826 135.838 0 22.64 29.108 34.499 45.279 17.249 122.901-132.604 312.643-536.884 21.562-764.359z" />
<glyph unicode="&#xe913;" glyph-name="icon_reply" d="M1005.708 104.794l-31.078 29.339c-110.163 104.1-255.999 162.103-407.542 162.103h-149.412v-175.027l-399.31 335.035 399.31 335.035v-175.027h0.294c175.688 0 335.439-76.856 444.843-200.629 74.969-84.782 126.284-191.613 142.895-310.829zM1018.693 117.792c-29.51 27.869-58.812 55.529-91.642 79.588-49.232 36.064-104.063 64.324-161.748 84.194-57.244 19.722-117.648 30.649-178.15 32.707-27.293 0.931-54.684 0.343-81.976 0.343-29.167 0-58.334 0-87.501 0-9.935 0-18.375-8.416-18.375-18.375 0-51.192 0-102.397 0-153.589 0-7.142 0-14.296 0-21.437 10.461 4.336 20.911 8.661 31.372 12.997-21.927 18.387-43.842 36.786-65.77 55.174-36.615 30.711-73.218 61.433-109.833 92.144-14.185 11.907-28.371 23.802-42.556 35.708-32.499 27.268-65.010 54.549-97.509 81.817-27.354 22.944-54.096 47.003-82.221 68.991-0.49 0.38-0.955 0.796-1.433 1.2 0-8.661 0-17.321 0-25.982 13.291 11.147 26.57 22.295 39.861 33.442 31.74 26.631 63.491 53.263 95.231 79.894 38.391 32.205 76.77 64.41 115.161 96.615 33.32 27.954 66.639 55.909 99.959 83.875 16.047 13.463 33.111 26.288 48.412 40.621 0.22 0.208 0.465 0.392 0.698 0.588-10.461 4.336-20.911 8.661-31.372 12.997 0-51.192 0-102.397 0-153.589 0-7.142 0-14.296 0-21.437 0-9.935 8.416-18.375 18.375-18.375 13.646 0 27.305-0.453 40.927-1.372 6.529-0.441 13.058-0.992 19.575-1.654 3.565-0.355 7.129-0.759 10.694-1.176 1.298-0.159 2.585-0.318 3.871-0.478 2.278-0.294 2.585-0.331 0.919-0.11 0.968-0.135 1.935-0.269 2.891-0.404 27.060-3.822 53.863-9.518 80.127-17.052 51.45-14.749 96.26-34.52 142.405-62.854 45.092-27.697 83.25-58.922 120.012-98.342 37.252-39.935 67.754-83.667 92.916-133.548 14.234-28.199 24.72-54.083 34.361-84.818 9.861-31.397 17.003-63.577 21.597-96.162 1.384-9.837 13.916-15.227 22.601-12.838 10.584 2.903 14.222 12.74 12.838 22.601-16.476 116.815-67.497 227.138-145.027 315.974-72.728 83.348-168.399 145.97-273.663 179.841-60.233 19.379-123.785 29.118-187.056 29.118 6.125-6.125 12.25-12.25 18.375-18.375 0 51.192 0 102.397 0 153.589 0 7.142 0 14.296 0 21.437 0 7.264-4.594 14.1-11.294 16.795-7.264 2.928-14.185 1.139-20.078-3.797-13.291-11.147-26.57-22.295-39.861-33.442-31.74-26.631-63.491-53.263-95.231-79.894-38.391-32.205-76.77-64.41-115.161-96.615-33.32-27.954-66.639-55.909-99.959-83.875-16.060-13.475-33.062-26.325-48.412-40.621-0.22-0.208-0.465-0.392-0.698-0.588-7.154-6.002-7.129-20.004 0-25.982 23.287-19.539 46.574-39.077 69.861-58.616 34.594-29.020 69.175-58.040 103.769-87.060 13.242-11.111 26.497-22.221 39.739-33.344 35.574-29.853 71.16-59.706 106.733-89.559 25.97-21.793 51.78-43.781 77.909-65.366 0.441-0.367 0.87-0.735 1.311-1.090 5.745-4.814 12.862-6.97 20.078-3.797 6.652 2.928 11.294 9.334 11.294 16.795 0 51.192 0 102.397 0 153.589 0 7.142 0 14.296 0 21.437-6.125-6.125-12.25-12.25-18.375-18.375 49.735 0 99.457 0.061 149.192 0 12.777-0.012 25.541-0.404 38.293-1.225 6.982-0.453 13.94-1.017 20.898-1.715 3.638-0.367 7.276-0.759 10.902-1.188 1.654-0.196 3.295-0.404 4.937-0.612 0.992-0.122 1.972-0.257 2.964-0.38-1.592 0.208-1.249 0.159 1.029-0.159 29.449-4.361 58.542-10.596 87.060-19.171 13.879-4.177 27.611-8.857 41.16-14.038 14.381-5.5 24.671-9.91 39.2-16.844 26.227-12.519 51.535-26.962 75.655-43.181 37.472-25.198 70.033-55.725 103.732-87.562 7.215-6.811 18.828-7.154 25.982 0 6.909 6.884 7.264 19.159 0.024 25.994z" />
<glyph unicode="&#xe914;" glyph-name="icon_notes" d="M56.553 29.916l79.178 145.673c2.094-5.574 6.891-9.689 12.75-10.78l0.105-0.016c6.17-1.195 12.339-2.229 18.68-3.086l-80.555-148.245c-3.002-5.341-8.625-8.895-15.080-8.912h-0.002c-3.010 0.009-5.842 0.765-8.321 2.095l0.095-0.047c-5.351 3.013-8.907 8.657-8.907 15.132 0 2.998 0.763 5.818 2.103 8.276l-0.045-0.091zM168.465 235.911c128.707 236.511 430.683 606.525 766.935 724.092-112.941-9.426-305.403-38.742-466.844-131.45-14.911-8.57-29.65-17.652-44.044-27.42l-65.641-131.28c-2.902-5.641-8.684-9.432-15.349-9.432-0.146 0-0.292 0.002-0.438 0.005h0.021c-6.751 0.217-12.51 4.25-15.21 10.004l-0.045 0.107-14.91 33.763c-17.88-20.161-34.647-42.323-49.626-65.738l-1.274-2.129c-18.927-29.827-37.437-64.604-53.344-100.785l-2.012-5.131 9.939-139.674c0.034-0.402 0.053-0.87 0.053-1.344 0-6.569-3.743-12.262-9.213-15.066l-0.095-0.045c-2.27-1.235-4.971-1.961-7.841-1.961-4.149 0-7.945 1.517-10.861 4.027l0.021-0.018-22.795 18.852c-6.158-30.686-9.682-65.961-9.682-102.060 0-25.165 1.713-49.929 5.027-74.183l-0.316 2.818zM527.51 356.744l129.728 68.719c2.048 5.655 4.113 11.312 5.828 17.138 53.814 172.067 222.11 390.064 306.43 492.376-334.187-104.711-646.788-487.406-770.869-715.516l-13.882-25.535c136.935-17.995 304.374 5.313 406.346 119.111l-58.954 11.824c-7.885 1.627-13.728 8.513-13.728 16.764 0 6.517 3.647 12.184 9.010 15.069l0.091 0.045zM688.609-29.721h-616.975c-9.466 0-17.138-7.674-17.138-17.138s7.674-17.138 17.138-17.138v0h616.975c9.466 0 17.138 7.674 17.138 17.138s-7.674 17.138-17.138 17.138v0z" />
<glyph unicode="&#xe915;" glyph-name="icon_back" d="M775.314 950.248c-13.003 13.003-32.508 13.003-45.511 0l-481.117-479.492c-13.003-13.003-13.003-32.508 0-45.511l479.492-479.492c6.502-6.502 14.629-9.752 22.756-9.752s16.254 3.251 22.756 9.752c13.003 13.003 13.003 32.508 0 45.511l-455.111 456.737 456.737 456.737c11.378 13.003 11.378 32.508 0 45.511z" />
<glyph unicode="&#xe916;" glyph-name="icon_harth-1" d="M946.41-64v527.518c0 119.443-48.881 228.046-127.598 306.763-78.766 78.766-187.368 127.646-306.811 127.646s-228.046-48.881-306.763-127.646c-78.766-78.718-127.646-187.32-127.646-306.763v-527.518h-62.072v527.518c0 136.569 55.836 260.713 145.827 350.655 89.942 89.99 214.087 145.827 350.655 145.827s260.713-55.836 350.655-145.827c89.99-89.942 145.827-214.087 145.827-350.655v-527.518h-62.072zM335.233 391.132c16.118 40.294 35.593 68.068 54.301 94.691 25.903 36.888 50.272 71.522 60.825 134.986 0.72 4.221 4.701 7.051 8.922 6.332 0.911-0.144 1.727-0.432 2.494-0.863 9.402-4.509 154.893-76.319 185.737-230.444 2.35 3.79 4.557 8.299 6.572 13.431 4.701 11.992 8.107 26.911 9.45 43.172 0.288 4.269 4.029 7.483 8.299 7.147 2.494-0.192 4.605-1.535 5.852-3.502 10.505-14.631 35.593-73.249 23.649-140.694-7.004-39.814-26.719-82.843-69.46-121.986-1.487-1.391-3.358-2.015-5.229-2.015l-95.075-0.048c-4.269 0-7.771 3.454-7.771 7.723 0 1.487 0.432 2.878 1.103 4.029 9.018 17.461 16.166 56.652 14.918 96.13-0.672 20.051-3.502 40.054-9.45 56.94-4.269-28.398-12.28-57.659-23.553-84.282-13.575-32.043-31.948-60.297-54.301-78.766-1.439-1.199-3.166-1.775-4.941-1.775h-59.050c-1.871 0-3.598 0.624-4.941 1.775-25.376 18.996-50.224 47.777-59.866 87.448-7.435 30.46-5.852 67.205 11.513 110.569zM281.268 66.908c-17.125 0-31.036 13.863-31.036 31.036 0 17.125 13.911 30.988 31.036 30.988h461.464c17.125 0 31.036-13.863 31.036-30.988 0-17.173-13.911-31.036-31.036-31.036h-461.464z" />
<glyph unicode="&#xe917;" glyph-name="comm-settings" horiz-adv-x="1843" d="M0.087 959.952h1843.027v-307.171h-1843.027v307.171zM0.087 243.219h1843.027v-307.171h-1843.027v307.171z" />
<glyph unicode="&#xe918;" glyph-name="icon_camera" d="M643.072 168.106h-562.518c-45.056 0-80.554 36.864-80.554 80.554v398.678c0 45.056 36.864 80.554 80.554 80.554h561.152c45.056 0 80.554-36.864 80.554-80.554v-397.312c1.366-45.056-35.498-81.92-79.19-81.92zM778.24 569.514v-243.030l225.28-126.976c9.558-5.462 20.48 1.366 20.48 12.288v472.406c0 10.922-10.922 16.384-20.48 12.288l-225.28-126.976z" />
<glyph unicode="&#xe919;" glyph-name="icon_instance_chat" d="M511.998 933.054c282.835 0 512.002-186.078 512.002-415.759 0-133.136-77.072-240.651-196.921-316.768l98.457-237.578-295.383 158.386c-37.347-7.039-78.17-19.799-118.156-19.799-282.829 0-511.996 186.080-511.996 415.759s229.169 415.759 511.996 415.759z" />
<glyph unicode="&#xe91a;" glyph-name="icon_leave" d="M852.591 445.774h-293.843v149.147h293.843v111.305l171.409-184.765-171.409-186.991zM405.148-64l-371.756 178.087v812.521l371.756-175.86zM692.313 80.696h-658.921c-17.809 0-33.391 15.582-33.391 33.391v812.521c0 17.809 15.582 33.391 33.391 33.391h658.921c17.809 0 33.391-15.582 33.391-33.391v-204.8c0-17.809-15.582-33.391-33.391-33.391s-33.391 15.582-33.391 33.391v173.635h-592.139v-750.19h592.139v171.409c0 17.809 15.582 33.391 33.391 33.391s33.391-15.582 33.391-33.391v-202.573c-2.226-17.809-15.582-33.391-33.391-33.391z" />
<glyph unicode="&#xe91b;" glyph-name="icon_mic" d="M548.202 74.602v-64.129h80.679c20.687 0 37.236-16.549 37.236-37.236s-16.549-37.236-37.236-37.236h-235.83c-20.687 0-37.236 16.549-37.236 37.236s16.549 37.236 37.236 37.236h80.679v64.129c-165.495 18.618-293.754 161.358-293.754 328.921v117.915c0 20.687 16.549 37.236 37.236 37.236s37.236-16.549 37.236-37.236v-117.915c0-140.671 115.846-256.517 256.517-256.517 142.739 0 258.586 115.846 258.586 256.517v117.915c0 20.687 16.549 37.236 37.236 37.236s37.236-16.549 37.236-37.236v-117.915c0-167.564-128.259-310.303-295.822-328.921zM335.127 784.162c0 97.228 78.61 175.838 175.838 175.838s177.907-78.61 177.907-175.838v-380.638c0-97.228-80.679-175.838-177.907-175.838s-175.838 78.61-175.838 175.838v380.638z" />
<glyph unicode="&#xe91c;" glyph-name="icon_microphone_mute" d="M866.929 525.598c-18.723-0.007-33.899-15.183-33.905-33.905v-0.001c0-0.051 0-0.111 0-0.172 0-168.435-136.544-304.979-304.979-304.979-63.612 0-122.675 19.475-171.553 52.789l1.056-0.679-48.696-48.695c51.644-38.005 114.927-63.143 183.652-69.523l1.464-0.11 0.011-116.502h-169.539c-18.727 0-33.909-15.181-33.909-33.909s15.181-33.909 33.909-33.909v0h406.897c18.7 0.036 33.847 15.203 33.847 33.909s-15.146 33.873-33.843 33.908h-169.544v116.504c190.775 18.095 338.858 177.411 339.039 371.351v0.018c0 0.018 0 0.039 0 0.060 0 18.692-15.153 33.845-33.845 33.845-0.021 0-0.042 0-0.064 0h0.003zM731.306 480.427v131.982l-306.971-306.971c29.645-17.872 65.44-28.444 103.704-28.444 112.262 0 203.267 91.006 203.267 203.267 0 0.059 0 0.118 0 0.177v-0.009zM133.065 120.092c6.136-6.117 14.601-9.898 23.95-9.898s17.814 3.781 23.951 9.899l676.178 676.179c6.046 6.116 9.78 14.526 9.78 23.809 0 18.707-15.164 33.871-33.871 33.871-9.282 0-17.693-3.734-23.811-9.782l-78.162-78.163c-5.18 108.217-94.179 193.995-203.21 193.995-112.351 0-203.429-91.079-203.429-203.429 0-0.003 0-0.007 0-0.009v0.001-276.138c0-0.114 0-0.25 0-0.387 0-19.592 2.784-38.535 7.979-56.453l-0.354 1.43c4.559-15.812 10.253-29.514 17.269-42.391l-0.543 1.090-69.176-69.176c-35.561 48.878-56.89 110.103-56.89 176.309 0 0.297 0 0.592 0.001 0.889v-0.046c0 18.725-15.18 33.905-33.905 33.905s-33.905-15.18-33.905-33.905v0c0-0.178 0-0.387 0-0.597 0-70.335 19.633-136.086 53.718-192.069l-0.924 1.634c7.968-13.324 15.703-24.613 24.047-35.408l-0.609 0.819-98.076-98.076c-6.117-6.136-9.899-14.601-9.899-23.951s3.782-17.815 9.9-23.951l-0.001 0.001z" />
<glyph unicode="&#xe91d;" glyph-name="icon_startshare" d="M0.001 140.801v665.599h1023.998v-665.599h-204.8v102.399h102.399v460.799h-819.199v-460.799h102.399v-102.399h-204.8zM512 345.601l307.199-307.199h-614.399l307.199 307.199z" />
<glyph unicode="&#xe91e;" glyph-name="icon_stop-camera" d="M76.801 704h-76.8v-511.999h588.801zM768 364.8c44.8-25.6 0 0 256-172.8v511.999l-256-166.4v166.4h-422.4l-256 256-89.599-89.599c211.199-211.199 64-64 934.4-934.4l89.599 89.599-256 256v83.2z" />
<glyph unicode="&#xe91f;" glyph-name="icon_stopshare" d="M0.001 89.6v716.798h1023.998v-716.798h-204.8v102.399h102.399v511.999h-819.199v-511.999h102.399v-102.399h-204.8zM204.801 345.601h614.399l-307.199-307.199-307.199 307.199z" />
<glyph unicode="&#xe920;" glyph-name="icon_sack" d="M311.882 887.065c-2.25 3.865-3.578 8.507-3.578 13.458 0 11.656 7.36 21.592 17.685 25.416l0.188 0.060 8 2.88c52.925 19.694 114.070 31.089 177.877 31.089s124.951-11.395 181.511-32.263l-3.634 1.173 8-2.88c10.513-3.885 17.873-13.822 17.873-25.478 0-4.952-1.328-9.593-3.648-13.588l0.070 0.129-85.338-148.703c-32.659-16.821-71.271-26.682-112.186-26.682-43.268 0-83.961 11.028-119.421 30.426l1.299-0.651zM213.316-9.841c93.019-42.669 185.931-54.19 298.684-54.19s205.773 11.52 298.684 54.19c71.269 33.713 119.687 105.027 119.687 187.65 0 0.183 0 0.367-0.001 0.55v-0.028c0 279.697-137.928 421.998-242.041 496.99-49.649-30.848-109.89-49.146-174.402-49.176h-0.008c-7.040 0-14.081 0-21.335 0.747-0.271-5.834-0.425-12.673-0.425-19.548 0-70.44 16.175-137.102 45.013-196.474l-1.173 2.676c2.696-5.438 4.273-11.842 4.273-18.615 0-23.569-19.106-42.675-42.675-42.675-16.797 0-31.327 9.704-38.291 23.812l-0.111 0.25c-22.653 45.675-39.151 98.714-46.648 154.605l-0.289 2.631c-14.253-15.948-27.665-33.428-39.722-51.876l-1.026-1.674c-7.688-12.004-20.955-19.847-36.055-19.847-23.568 0-42.674 19.106-42.674 42.674 0 8.469 2.467 16.361 6.721 22.998l-0.102-0.171c29.531 45.891 63.906 85.32 103.198 119.203l0.701 0.592c-25.254 9.108-47.008 19.9-67.282 32.81l1.358-0.808c-104.326-74.671-244.281-216.973-243.854-498.269-0.003-0.393-0.004-0.858-0.004-1.323 0-82.665 48.47-154.010 118.539-187.165l1.258-0.535z" />
<glyph unicode="&#xe921;" glyph-name="icon_streaming" d="M387.385 754.672c7.313 1.043 15.779-4.656 23.798-8.876l275.637-142.815c10.676-5.574 10.788-25.412 0-30.651l-275.637-142.889c-10.813-5.314-22.184-13.842-30.726-5.314v326.982c2.147 2.135 4.481 3.253 6.927 3.562zM94.554 897.637c-52.947 0-96.212-43.252-96.212-96.212v-471.945h1024v471.945c0 52.96-43.265 96.212-96.212 96.212h-831.577zM-1.657 288.748v-31.619c0-52.96 43.265-96.212 96.212-96.212h831.565c52.947 0 96.212 43.252 96.212 96.212v31.619h-1023.988zM424.454 172.488v-82.68c-44.704-10.093-86.082-27.932-120.469-52.91-15.716-11.173-8.666-35.816 10.54-37.044 4.779-0.249 9.509 1.167 13.333 4.022 47.448 34.387 113.53 54.574 182.59 54.574 68.986 0 135.006-20.199 182.454-54.574 22.048-16.487 46.554 17.069 24.010 33.022-34.412 24.978-75.789 42.817-120.531 52.91v82.68h-171.927z" />
<glyph unicode="&#xe922;" glyph-name="icon_voice" d="M1023.981 425.093c0 64.021-50.313 105.933-103.185 105.933h-2.79c-1.489 227.41-178.167 416.568-406.006 416.568-227.819 0-404.496-189.158-405.975-416.568h-2.842c-52.83 0-103.164-41.912-103.164-105.933 0-70.608-0.042-118.257 0-176.541 0.042-64.095 50.145-105.849 114.23-105.933 27.512-0.042 97.658 0 97.658 0v388.407h-35.178c1.615 180.841 154.18 345.95 335.273 345.95 181.114 0 333.678-165.109 335.305-345.95h-35.178c0 0 0-386.844 0-388.313h-0.188c-2.412-58.851-64.692-118.593-123.385-123.606-25.445-2.171-45.026-0.062-70.629 0-2.318 0-21.323 17.704-32.494 17.736-49.086 0.188-98.161 0.451-147.247-0.084-19.876-0.188-32.126-17.662-32.126-17.662-0.535-12.922-0.598-40.024 0-52.956 0 0 13.457-17.62 33.983-17.662 47.754-0.104 95.487 0 143.209-0.084 11.841-0.020 31.255 17.642 34.664 17.736 26.137 0.692 35.314 0 70.629 0 87.064 0 161.564 64.053 176.541 150.058 1.825 10.468 2.518 17.264 3.377 26.41 15.775 0 31.319 0 41.283 0.020 64.095 0.084 114.166 41.828 114.23 105.933 0.052 58.284 0.010 105.933 0.010 176.541z" />
<glyph unicode="&#xe923;" glyph-name="icon_dice" d="M533.367 515.833l472.25 232.937v-575.084l-472.25-232.937v575.084zM648.818 484.63c-35.951-23.199-61.456-87.64-37.172-125.219 14.245-22.113 39.479-22.113 60.914-8.276 35.816 23.063 61.456 87.504 37.172 125.083-14.245 22.113-39.614 22.249-60.914 8.411zM757.622 411.506c-31.339-20.214-51.688-66.34-45.312-103.241 6.512-37.986 38.258-50.196 69.054-30.253 31.339 20.214 51.688 66.34 45.312 103.241-6.512 37.986-38.393 50.196-69.054 30.253zM866.425 338.383c-31.339-20.214-51.688-66.476-45.312-103.105 6.512-38.258 38.258-50.332 69.054-30.389 31.339 20.214 51.553 66.476 45.312 103.241-6.105 35.951-36.63 51.281-69.054 30.253zM510.304 960l-477.541-190.202 477.541-235.515 477.541 235.515-477.541 190.202zM510.304 830.983c92.931 0 168.225-37.444 168.225-83.841 0-46.262-75.294-83.841-168.225-83.841s-168.225 37.579-168.225 83.841c0 46.397 75.294 83.841 168.225 83.841zM495.11-64v580.375l-476.727 235.108v-580.375l476.727-235.108zM106.565 349.643c30.525 13.431 71.631-13.16 91.981-59.421 20.214-46.262 11.939-94.559-18.586-107.854-30.389-13.431-71.631 13.16-91.845 59.421-20.35 46.126-12.074 94.423 18.45 107.854zM331.905 493.448c30.525 13.431 71.631-13.16 91.981-59.421 20.214-46.262 11.939-94.559-18.586-107.854-30.389-13.431-71.631 13.16-91.845 59.421-20.35 46.126-12.074 94.423 18.45 107.854z" />
<glyph unicode="&#xe924;" glyph-name="icon_topics" d="M476.768 426.406h87.512l14.775 75.010h-87.512l-14.775-75.010zM508.59 965.114c-137.518 0-265.945-50.007-363.685-147.747s-151.156-225.030-151.156-362.548c0-136.382 52.28-265.945 148.883-362.548s225.030-148.883 361.412-148.883c136.382 0 265.945 53.416 363.685 151.156s150.020 227.303 150.020 365.958v505.749h-509.159zM775.671 494.597h-100.013l-11.365-62.508h111.378v-96.604h-130.699l-25.003-126.153h-106.832l23.867 126.153h-69.327l-23.867-126.153h-106.832l23.867 126.153h-77.283v96.604h96.604l11.365 62.508h-107.969v97.74h126.153l27.276 143.201h106.832l-28.413-143.201h70.464l28.413 144.337h105.696l-26.14-144.337h81.829v-97.74z" />
<glyph unicode="&#xe925;" glyph-name="icon_turnkeeper" d="M251.596 629.734l-91.464 63.928c72.53 103.67 186.798 169.001 311.205 180.941v85.33l240.937-139.069-240.937-139.069v80.998c-88.003-11.397-168.141-59.331-219.74-133.059zM197.068 407.27h81.070l-139.069 240.927-139.069-240.927h85.33c11.868-124.396 77.199-238.674 180.931-311.205l63.867 91.525c-73.728 51.538-121.59 131.738-133.059 219.679zM552.796 133.196v80.998l-240.927-139.069 240.937-139.059v85.33c124.273 11.93 238.397 77.199 310.928 180.726l-91.331 64.072c-51.599-73.667-131.871-121.528-219.607-132.997zM938.671 488.73c-12.001 124.334-77.343 238.469-180.941 311.133l-64-91.402c73.738-51.661 121.6-131.86 133.069-219.73h-80.927l139.059-240.937 139.069 240.937h-85.33z" />
<glyph unicode="&#xe926;" glyph-name="icon_vote" d="M715.815 123.611h-613.551v613.537h545.37l102.257 102.257c0 0-477.205 0-647.641 0-102.257 0-102.257-102.257-102.257-102.257s0-434.596 0-613.537c0.014-102.271 102.271-102.271 102.271-102.271s406.906 0 613.551 0c102.257 0 102.257 102.271 102.257 102.271v340.858l-102.257-102.271v-238.588zM1016.297 741.372l-192.993 62.791c-5.149 0-10.311-1.949-12.871-4.907-23.154-21.575-129.974-123.617-189.18-198.169-43.733-53.973-90.039-136.417-113.193-174.675-3.868-3.911-12.885-5.887-19.341-5.887-5.119 0-16.711 9.828-19.271 13.739-25.713 31.416-69.46 84.365-110.633 124.599-30.905 31.402-63.074 54.982-91.362 79.486-3.883 2.958-7.751 3.911-14.208 3.911-8.946 0-17.962-5.874-17.962-13.725l-32.17-124.584c0-5.874 2.56-11.79 7.708-15.701 25.713-21.575 99.057-81.478 131.212-119.72 60.514-69.631 102.953-125.552 122.281-155.020 1.251-2.887 19.271-20.579 23.154-20.579 5.119 0 15.446 7.836 18.005 10.808 41.187 50.019 155.688 212.904 262.524 317.875 105.498 104.005 207.115 172.669 254.731 209.945 0 0.996 1.265 1.992 1.265 3.954 0 2.901-3.797 5.86-7.694 5.86z" />
<glyph unicode="&#xe927;" glyph-name="icon_d4" d="M985.897 228.875l-517.233 720.864c-4.281 5.898-11.153 9.689-18.91 9.689-8.96 0-16.738-5.058-20.637-12.473l-0.061-0.127-346.22-671.937c-1.619-3.091-2.569-6.751-2.569-10.633 0-5.206 1.708-10.013 4.593-13.892l-0.044 0.063 224.018-305.447c4.276-5.804 11.078-9.533 18.753-9.553h0.003c3.106 0.024 6.065 0.62 8.787 1.688l-0.167-0.058 639.436 256.287c8.566 3.571 14.479 11.878 14.479 21.565 0 5.012-1.582 9.655-4.276 13.456l0.049-0.073zM130.949 266.385l294.963 572.568-104.146-832.932zM343.2-9.937l112.301 898.168 475.878-662.384zM702.118 316.246l-28.774-9.553 26.095-74.672-52.772-19.338-23.881 76.886-110.785-36.929-13.746 60.228 48.694 199.089 50.675 11.649 58.247-168.334 28.075 8.621zM607.176 340.476l-38.443 124.299-28.308-144.919z" />
<glyph unicode="&#xe928;" glyph-name="icon_d6" d="M944.2 677.516l-440.345 281.745c-3.72 2.494-8.299 3.98-13.224 3.98-5.506 0-10.577-1.858-14.624-4.98l0.056 0.041-398.181-299.474c-5.595-4.427-9.153-11.215-9.153-18.836 0-0.538 0.018-1.072 0.053-1.6l-0.004 0.071 11.979-359.368c0.288-7.641 4.112-14.333 9.873-18.519l0.069-0.048 440.466-316.724c3.883-2.838 8.749-4.545 14.013-4.552h0.002c0.218-0.007 0.473-0.011 0.729-0.011 5.901 0 11.303 2.133 15.478 5.67l-0.035-0.029 374.102 341.64c4.609 4.221 7.556 10.19 7.785 16.85l0.001 0.041 11.979 353.139c0.008 0.235 0.013 0.512 0.013 0.791 0 8.432-4.356 15.846-10.94 20.116l-0.094 0.056zM492.115 910.028l409.799-262.339-357.571-311.453-420.941 296.12zM128.674 292.274l-10.541 314.207 415.070-291.208v-313.968zM557.52 5.977v310.255l348.468 303.307-10.662-304.384zM481.573 707.824c-4.287 3.161-9.508 5.305-15.181 5.975l-0.152 0.014c-1.394 0.234-3.002 0.367-4.64 0.367-9.162 0-17.347-4.181-22.752-10.739l-0.041-0.050c-11.261-12.578-11.261-28.27 0-47.198 10.585-14.882 22.417-27.818 35.649-39.169l0.288-0.241c-1.232 4.437-1.94 9.533-1.94 14.794s0.708 10.356 2.034 15.196l-0.094-0.402c3.166 10.161 8.217 18.928 14.795 26.303l-0.061-0.070c14 16.531 34.771 26.954 57.975 26.954 0.17 0 0.338 0 0.508-0.001h-0.026c26.314-0.309 50.342-9.852 69.050-25.535l-0.171 0.139c21.236-15.912 37.288-37.69 45.848-62.926l0.271-0.922c8.505-25.635 2.875-51.27-17.13-76.905-14.983-20.085-38.679-32.95-65.379-32.95-8.252 0-16.216 1.228-23.722 3.513l0.577-0.151c-35.139 9.712-65.508 26.774-90.629 49.522l0.188-0.168c-15.357 12.536-29.146 25.148-42.199 38.484l-0.087 0.089c-15.112 15.374-27.463 33.521-36.211 53.598l-0.445 1.146c-4.107 9.953-6.491 21.509-6.491 33.623 0 3.728 0.226 7.404 0.664 11.014l-0.043-0.434c2.255 15.922 9.375 29.877 19.784 40.628l-0.019-0.020c13.507 16.018 32.568 26.978 54.181 29.898l0.443 0.049c2.482 0.25 5.364 0.394 8.28 0.394 18.849 0 36.302-5.98 50.564-16.147l-0.267 0.18zM574.53 552.097c1.025-0.104 2.216-0.163 3.421-0.163 11.47 0 21.686 5.374 28.265 13.742l0.058 0.077c4.725 5.539 7.599 12.783 7.599 20.696 0 3.966-0.722 7.764-2.041 11.269l0.073-0.22c-4.965 13.353-13.51 24.409-24.474 32.323l-0.204 0.139c-10.393 9.624-24.019 15.888-39.079 16.997l-0.213 0.013c-0.502 0.025-1.091 0.040-1.683 0.040-11.035 0-20.909-4.974-27.501-12.802l-0.044-0.054c-5.295-6.096-8.522-14.112-8.522-22.88 0-0.379 0.006-0.756 0.018-1.132l-0.001 0.055c1.759-16.888 10.749-31.375 23.777-40.489l0.181-0.12c10.724-9.745 24.721-16.058 40.162-17.118l0.207-0.012z" />
<glyph unicode="&#xe929;" glyph-name="icon_d8" d="M469.389 615.978c-0.871 3.438-1.371 7.385-1.371 11.448 0 9.745 2.875 18.819 7.824 26.42l-0.115-0.187c-0.823-0.026-1.791-0.040-2.762-0.040-15.019 0-29.214 3.526-41.804 9.794l0.546-0.245c-10.153 5.376-18.856 11.908-26.396 19.587l-0.016 0.016c-11.227 10.71-18.208 25.788-18.208 42.496 0 3.232 0.261 6.402 0.763 9.492l-0.046-0.338q4.46 28.055 40.85 48.832c16.406 10.35 36.368 16.491 57.762 16.491 4.88 0 9.685-0.32 14.397-0.939l-0.554 0.060c22.756-2.841 42.643-13.358 57.364-28.836l0.038-0.040c6.633-7.257 12.029-15.782 15.767-25.147l0.197-0.559c1.503-4.121 2.372-8.878 2.372-13.84 0-7.465-1.968-14.47-5.414-20.524l0.108 0.205c1.946 0.123 4.221 0.193 6.511 0.193 15.36 0 29.987-3.135 43.277-8.799l-0.722 0.273c15.653-6.57 28.923-16.001 39.721-27.74l0.072-0.080c13.13-12.679 21.283-30.438 21.283-50.101 0-3.279-0.227-6.504-0.665-9.661l0.041 0.366q-4.93-32.164-45.545-55.406c-17.28-11.243-38.422-17.93-61.126-17.93-32.592 0-61.964 13.778-82.612 35.827l-0.058 0.063c-10.222 10.453-17.732 23.602-21.361 38.28l-0.12 0.574zM570.693 588.862c2.834-0.608 6.090-0.956 9.427-0.956 9.013 0 17.432 2.539 24.583 6.942l-0.203-0.117c9.364 4.275 16.060 12.958 17.472 23.321l0.017 0.156c-0.183 11.944-5.436 22.625-13.694 30.016l-0.039 0.034c-8.373 9.73-19.638 16.758-32.454 19.756l-0.414 0.081c-2.633 0.512-5.662 0.806-8.758 0.806-9.168 0-17.737-2.57-25.025-7.029l0.21 0.119c-9.295-4.363-15.95-13.001-17.47-23.311l-0.021-0.166c0.089-12.153 5.458-23.036 13.923-30.481l0.046-0.039c8.311-9.414 19.406-16.194 31.992-19.056l0.406-0.078zM481.95 689.109c2.179-0.398 4.686-0.626 7.246-0.626 8.032 0 15.541 2.241 21.935 6.132l-0.187-0.105c8.235 3.715 14.171 11.244 15.592 20.274l0.019 0.151c0.006 0.221 0.009 0.481 0.009 0.742 0 8.985-3.838 17.074-9.965 22.716l-0.022 0.019c-6.793 7.769-15.943 13.325-26.328 15.555l-0.319 0.057c-2.128 0.374-4.578 0.587-7.077 0.587-8.231 0-15.92-2.314-22.456-6.328l0.187 0.107c-8.125-3.778-14.027-11.152-15.703-20.017l-0.028-0.172c-0.014-0.351-0.022-0.763-0.022-1.178 0-9.367 4.079-17.781 10.555-23.563l0.031-0.028c6.722-7.106 15.641-12.073 25.667-13.812l0.276-0.040zM1016.756 721.272c-2.906 5.596-7.839 9.803-13.803 11.693l-0.166 0.046-753.26 223.384c-2.047 0.647-4.403 1.020-6.845 1.020-10.437 0-19.284-6.812-22.338-16.231l-0.047-0.166-223.735-730.605c-0.647-2.047-1.020-4.403-1.020-6.845 0-10.437 6.812-19.284 16.231-22.338l0.166-0.047 753.847-235.592c2.069-0.744 4.457-1.174 6.946-1.174 0.034 0 0.069 0 0.103 0h-0.006c0.001 0 0.003 0 0.006 0 4.004 0 7.765 1.044 11.024 2.876l-0.113-0.058c5.596 2.906 9.803 7.839 11.693 13.803l0.046 0.166 223.032 742.109c0.651 2.054 1.026 4.416 1.026 6.865 0 4.063-1.032 7.885-2.849 11.218l0.062-0.123zM953.251 697.795l-584.461-346.051-108.111 552.297zM245.066 860.96l101.89-520.368-295.81-112.338zM72.628 211.352l285.363 108.346 344.525-305.201zM757.1-2.524l-376.806 333.844 580.821 344.525z" />
<glyph unicode="&#xe92a;" glyph-name="icon_d10" d="M435.489 620.581l-10.355 27.152c11.15 4.316 20.432 8.723 29.346 13.711l-1.157-0.594c7.438 4.136 13.35 10.232 17.148 17.599l0.11 0.235c1.727 3.845 2.734 8.335 2.734 13.059 0 1.276-0.073 2.537-0.217 3.775l0.015-0.151c-0.187 2.939-0.762 5.683-1.676 8.266l0.065-0.212 35.552 12.656 100.673-213.771-50.738-19.79-67.997 157.969zM669.394 747.141c25.501-16.975 46.281-39.042 61.286-64.88l0.499-0.931c21.4-33.711 32.676-63.165 32.905-87.556s-15.072-44.181-46.022-56.146c-10.327-4.91-22.44-7.779-35.223-7.779-17.762 0-34.23 5.536-47.773 14.976l0.273-0.18c-26.083 20.692-46.736 47.099-60.232 77.398l-0.517 1.3c-16.568 34.516-23.011 61.209-20.365 82.264s17.603 35.322 44.526 44.986c9.372 4.134 20.301 6.539 31.79 6.539 14.255 0 27.644-3.703 39.26-10.201l-0.408 0.209zM657.889 586.065c6.379-7.754 15.974-12.66 26.715-12.66 4.461 0 8.723 0.846 12.638 2.386l-0.234-0.081c9.916 2.707 17.085 11.634 17.085 22.234 0 3.099-0.612 6.055-1.724 8.753l0.056-0.153c-6.594 22.152-15.608 41.471-27.002 59.109l0.539-0.891c-10.377 19.031-22.575 35.41-36.738 49.854l0.035-0.036c-5.713 5.872-13.692 9.514-22.52 9.514-4.328 0-8.45-0.875-12.202-2.458l0.207 0.078c-9.681-2.338-16.759-10.926-16.759-21.166 0-1.508 0.154-2.98 0.446-4.401l-0.024 0.14c4.724-21.005 12.307-39.571 22.449-56.42l-0.474 0.849c10.421-20.877 22.81-38.852 37.339-54.847l-0.176 0.197zM1026.407 563.054l-69.033 115.054c-2.472 4.175-6.15 7.41-10.554 9.265l-0.146 0.055-598.282 253.119c-2.661 1.164-5.762 1.843-9.021 1.843-8.841 0-16.519-4.986-20.372-12.301l-0.061-0.126-310.647-598.282c-1.624-3.072-2.576-6.716-2.576-10.581 0-4.958 1.569-9.55 4.236-13.307l-0.048 0.071 80.538-115.054c2.561-3.576 6.035-6.348 10.086-7.999l0.154-0.055 598.282-241.614c2.556-1.065 5.526-1.683 8.639-1.683 8.87 0 16.568 5.019 20.409 12.372l0.061 0.127 299.141 586.777c1.578 3.035 2.502 6.627 2.502 10.435 0 4.391-1.23 8.495-3.365 11.986l0.057-0.101zM395.91 480.905l-41.764 407.292 558.128-235.861-163.838-215.152zM55.579 323.166l278.431 536.383 39.924-384.051-209.629-198.124-108.266 45.102zM124.612 225.14l-43.951 61.784 80.538-33.596 291.893-161.076zM699.538-0.712l-2.876-5.638-66.962 27.038-443.42 245.641 203.071 192.601 351.605-43.951zM728.302 55.779l36.817 364.837 163.952 215.612 51.314-85.601z" />
<glyph unicode="&#xe92b;" glyph-name="icon_d12" d="M334.113 658.38l-23.546 25.783c11.152 7.057 20.798 14.232 29.872 22.051l-0.323-0.271c7.057 5.87 12.048 14.012 13.85 23.292l0.041 0.254c0.139 1.084 0.218 2.337 0.218 3.61 0 5.237-1.346 10.159-3.711 14.439l0.078-0.154c-1.37 3.021-3.065 5.621-5.092 7.923l0.030-0.034 36.967 22.368 199.196-189.66-49.093-36.024-141.274 142.687zM573.454 654.73c-8.005 17.542-8.241 41.088-0.824 70.637 4.216 14.092 7.382 30.633 8.879 47.653l0.069 0.968c-0.137 12.757-6.255 24.057-15.678 31.245l-0.097 0.071c-7.505 6.149-16.819 10.359-27.031 11.742l-0.282 0.031c-1.719 0.244-3.704 0.384-5.722 0.384-8.489 0-16.401-2.468-23.058-6.726l0.172 0.102c-12.597-7.652-17.071-16.482-13.303-26.489 4.655-9.304 10.912-17.142 18.485-23.451l0.116-0.094-42.146-26.725c-12.44 11.021-22.052 24.954-27.798 40.745l-0.221 0.696c-6.358 22.957 4.709 42.618 32.847 58.864 17.733 11.139 39.293 17.748 62.395 17.748 1.615 0 3.223-0.032 4.822-0.097l-0.23 0.007c23.927-1.086 45.633-9.785 62.959-23.709l-0.21 0.163c13.101-9.233 22.593-22.827 26.397-38.635l0.092-0.451c0.597-4.192 0.938-9.033 0.938-13.954 0-9.565-1.288-18.83-3.699-27.629l0.171 0.732-4.473-21.074c-1.98-7.773-3.796-17.526-5.049-27.453l-0.131-1.272c-0.117-1.178-0.184-2.545-0.184-3.93 0-4.786 0.8-9.386 2.274-13.672l-0.089 0.295 91.475 64.515 40.028-30.962-148.337-108.898c-14.289 13.296-25.671 29.511-33.22 47.718l-0.332 0.904zM1016.465 479.434l-101.129 247.229c-1.66 4.063-4.284 7.443-7.595 9.964l-0.057 0.043-269.48 201.904c-3.763 2.662-8.446 4.255-13.501 4.255-1.469 0-2.908-0.135-4.303-0.392l-370.581-55.546c-5.555-0.889-10.358-3.61-13.873-7.513l-0.018-0.021-112.43-123.497c-1.819-2.045-3.325-4.421-4.411-7.014l-0.062-0.167-123.379-314.57c-0.889-2.382-1.403-5.133-1.403-8.005s0.514-5.624 1.456-8.169l-0.053 0.163 39.322-117.728c1.129-3.128 2.727-5.824 4.737-8.157l-0.028 0.033 247.229-280.782c1.584-1.783 3.407-3.305 5.429-4.532l0.105-0.059 84.176-50.506c3.358-2.071 7.41-3.329 11.75-3.413h0.023c0.652-0.055 1.412-0.087 2.178-0.087s1.526 0.032 2.276 0.094l-0.099-0.007 303.267 56.157c2.54 0.556 4.78 1.367 6.873 2.429l-0.162-0.075 190.72 101.246c5.445 2.817 9.608 7.476 11.718 13.135l0.055 0.168 111.842 337.055c0.754 2.205 1.189 4.746 1.189 7.389 0 3.238-0.653 6.323-1.836 9.131l0.057-0.155zM865.184 709.474l-277.014-226.155-365.899 140.449 50.152 218.857 345.532 52.742zM161.406 727.369l80.879 88.885-45.090-196.017-130.914-266.418-23.546 71.343zM77.701 319.559l-1.295 2.237 137.859 279.251 365.546-139.155 53.449-331.052-311.979-87.002-2.119 1.295zM683.647 54.905l-291.024-54.272-43.559 26.136 299.618 83.47 171.883 16.718zM865.184 155.328l-208.379-20.838-53.802 331.169 276.19 224.978 90.415-220.976z" />
<glyph unicode="&#xe92c;" glyph-name="icon_d20" d="M1010.798 312.646l-166.663 499.988c-2.498 7.404-8.331 13.081-15.664 15.313l-0.169 0.044-440.466 130.949c-2.054 0.642-4.417 1.011-6.865 1.011-6.629 0-12.625-2.709-16.942-7.080l-369.041-369.041c-4.315-4.31-6.986-10.266-6.986-16.848 0-2.748 0.465-5.387 1.322-7.843l-0.051 0.167 178.567-523.797c2.923-8.567 10.359-14.85 19.402-16.058l0.122-0.013 428.562-59.522h3.214c5.98 0.005 11.444 2.213 15.623 5.857l-0.028-0.024 369.039 321.421c5.051 4.39 8.227 10.826 8.227 18.002 0 2.673-0.441 5.243-1.253 7.641l0.049-0.167zM207.722 67.056l85.236 416.062 393.8-404.753zM836.516 665.971l-534.868-141.902 84.045 377.967zM277.005 521.689l-227.376 49.404 306.184 305.469zM706.995 91.817l-398.443 409.396 541.297 143.687 1.429-4.167-142.854-547.606zM833.421 694.541l-363.325 190.472 333.326-98.926zM43.677 547.998l228.090-49.642-79.283-386.777zM611.641 8.843l-272.256 37.737 324.159 7.381zM740.804 121.222l124.283 478.084 95.236-286.66zM412.479 620.615c2.626 17.789 10.535 33.383 22.057 45.511l-0.034-0.036c7.867 9.050 15.106 19.096 21.391 29.771l0.514 0.943c2.055 3.883 3.262 8.487 3.262 13.373 0 4.206-0.894 8.203-2.502 11.811l0.073-0.185c-2.776 6.494-7.441 11.736-13.301 15.156l-0.151 0.081c-3.879 2.18-8.516 3.463-13.452 3.463-2.583 0-5.084-0.351-7.458-1.009l0.195 0.047c-10.714-2.381-16.428-7.619-17.38-15.594 0-0.026 0-0.056 0-0.086 0-7.46 1.578-14.55 4.417-20.958l-0.13 0.33-35.713-8.333c-3.466 8.105-5.48 17.537-5.48 27.44 0 2.916 0.174 5.791 0.514 8.614l-0.034-0.341c3.095 17.975 16.666 29.404 40.475 34.642 5.874 1.568 12.618 2.469 19.574 2.469 11.028 0 21.527-2.265 31.057-6.356l-0.513 0.195c14.57-6.409 25.989-17.751 32.34-31.865l0.159-0.396c2.956-5.866 4.689-12.786 4.689-20.11 0-4.98-0.801-9.774-2.28-14.259l0.092 0.321c-3.946-10.447-9.385-19.446-16.164-27.251l0.093 0.109-10.119-12.857q-9.642-11.904-12.857-17.5c-1.668-3.25-2.846-7.033-3.318-11.033l-0.015-0.158 78.808 20.714 13.214-29.166-126.664-34.404c-3.596 8.79-5.683 18.991-5.683 29.68 0 2.544 0.119 5.059 0.349 7.541l-0.024-0.319zM590.213 783.588c17.18-14.649 30.981-32.719 40.436-53.205l0.398-0.96c10.85-17.969 17.332-39.638 17.5-62.809v-0.047c-1.19-16.666-12.618-28.094-34.166-33.928-5.738-1.977-12.352-3.12-19.232-3.12-14.177 0-27.221 4.85-37.564 12.981l0.131-0.099c-18.106 15.749-32.401 35.394-41.646 57.664l-0.377 1.025c-9.098 16.208-14.456 35.573-14.456 56.189 0 2.219 0.062 4.425 0.185 6.613l-0.014-0.303c2.381 15.476 14.167 25.476 35.713 30.118 4.849 1.371 10.418 2.158 16.17 2.158 13.919 0 26.761-4.612 37.081-12.39l-0.157 0.113zM575.212 668.59c4.664-6.354 12.106-10.434 20.5-10.434 2.233 0 4.398 0.288 6.461 0.83l-0.177-0.040c7.226 1.342 12.625 7.596 12.625 15.112 0 1.661-0.264 3.26-0.751 4.758l0.030-0.108c-3.607 16.063-9.062 30.252-16.259 43.346l0.427-0.846c-6.886 15.177-15.086 28.258-24.773 40.075l0.25-0.315c-4.598 5.588-11.514 9.125-19.255 9.125-2.038 0-4.019-0.245-5.914-0.707l0.17 0.035c-7.355-0.914-12.991-7.126-12.991-14.655 0-0.964 0.092-1.907 0.269-2.818l-0.015 0.093c3.038-15.85 8.116-29.968 15.038-42.955l-0.395 0.813c6.895-15.772 15.189-29.372 25.040-41.669l-0.279 0.36z" />
<glyph unicode="&#xe92d;" glyph-name="icon_party" d="M408.953 148.977c-26.7 37.443-63.1 65.708-106.071 81.978 27.639 20.234 47.873 51.002 53.088 85.107 1.147 7.405 1.773 14.915 1.877 22.424 0 0.104-0.209 0.209-0.209 0.209v0.417c0 56.321-35.879 105.863-88.549 125.366-50.689 18.669-111.599 2.295-145.913-39.425-18.252-22.111-28.891-48.186-31.289-76.763-2.19-26.909 4.693-54.965 18.669-78.015 9.595-15.853 22.111-29.099 36.609-39.32-36.191-13.246-69.15-35.566-94.181-65.812-33.897-40.885-52.775-91.678-52.983-144.87 0-11.264 9.595-20.755 20.86-20.755h406.241c0.417 0 0.73 0 1.147 0 0.209 0 0.417-0.104 0.626-0.104s0.209 0 0.417 0c11.056 0.73 20.13 9.283 20.13 20.755v0.104c0 45.683-13.872 91.469-40.468 128.704zM983.636 148.977c-26.7 37.443-63.1 65.708-106.071 81.978 27.639 20.234 47.873 51.002 53.088 85.107 1.147 7.405 1.773 14.915 1.773 22.424 0 0.104-0.209 0.209-0.209 0.209v0.417c0 56.321-35.879 105.863-88.549 125.366-50.689 18.669-111.495 2.295-145.913-39.425-18.252-22.111-28.891-48.186-31.289-76.763-2.19-26.909 4.693-54.965 18.669-78.015 9.595-15.853 22.111-29.099 36.609-39.32-36.191-13.246-69.15-35.566-94.181-65.812-33.897-40.885-52.879-91.678-52.983-144.87 0-11.264 9.595-20.755 20.86-20.755h407.284c0.209 0 0.417-0.104 0.73-0.104 0.209 0 0.209 0 0.417 0 11.056 0.73 20.13 9.283 20.13 20.755v0.104c0.104 45.683-13.767 91.469-40.363 128.704zM711.627 617.485c23.676 30.664 37.86 68.524 34.105 107.844-3.233 34.523-17.835 65.604-40.363 91.782-48.603 56.321-127.974 81.248-200.67 79.371-74.052-1.877-150.085-31.185-195.559-91.574-19.608-25.97-30.977-58.198-31.185-90.739-0.209-44.535 20.964-86.463 52.879-116.814 66.751-63.309 170.215-80.31 257.304-57.051 8.344 2.19 16.688 4.693 24.823 7.927 26.075-8.657 52.045-17.105 78.119-25.657 4.068-1.356 8.135-2.712 12.203-4.068 15.749-5.215 29.099 10.951 25.657 25.657-5.736 24.406-11.473 48.916-17.313 73.322zM430.647 711.561c0 0 0 0 0 0-1.252-5.111-3.755-9.804-7.718-13.767-5.215-5.215-13.142-8.24-20.547-8.135-15.123 0.313-28.786 13.246-28.369 28.786 0.417 15.645 12.829 28.786 28.786 28.786 7.509 0 15.019-3.129 20.338-8.448 3.963-3.963 6.466-8.865 7.614-14.185 0.626-1.982 0.939-4.068 0.834-6.154 0.209-2.399-0.209-4.693-0.939-6.884zM540.056 711.561c0 0 0 0 0 0-1.252-5.111-3.755-9.804-7.718-13.767-5.319-5.215-13.142-8.24-20.547-8.135-15.123 0.313-28.786 13.246-28.369 28.786 0.417 15.645 12.829 28.786 28.786 28.786 7.509 0 15.019-3.129 20.338-8.448 4.068-3.963 6.466-8.865 7.614-14.185 0.626-1.982 0.939-4.068 0.834-6.154 0.209-2.399-0.209-4.693-0.939-6.884zM649.361 711.457c-1.252-5.111-3.755-9.7-7.718-13.663-5.215-5.215-13.037-8.24-20.547-8.135-15.123 0.313-28.786 13.246-28.369 28.786 0.417 15.645 12.829 28.786 28.786 28.786 7.509 0 15.019-3.129 20.338-8.448 4.068-4.068 6.466-8.97 7.614-14.289 0.626-1.982 0.939-4.068 0.834-6.154 0.209-2.295-0.104-4.693-0.939-6.884zM391.536 528.31c-0.834-1.356-1.773-2.399-2.92-3.233-0.209-0.104-0.417-0.313-0.626-0.417 0 0-0.104-0.104-0.104-0.104s-0.104-0.104-0.104-0.104c-0.73-0.417-1.564-0.73-2.399-1.043-4.485-1.356-8.97-2.712-13.454-4.068-31.811-9.491-63.518-19.087-95.329-28.578-7.197-2.19-15.645 5.319-12.829 12.829 1.356 3.65 2.712 7.301 4.068 10.847 9.491 25.24 18.982 50.376 28.473 75.512 2.503 6.779 11.89 11.056 17.418 4.589 19.399-22.424 43.91-38.903 70.818-50.793 0 0 0 0 0 0 1.46-0.313 2.712-0.834 3.755-1.669 4.798-2.19 5.736-9.491 3.233-13.767z" />
<glyph unicode="&#xe92e;" glyph-name="icon_popup" d="M712.53 919.625c0.449-20.404 20.196-37.636 39.926-36.723h135.924l-314.928-318.357c-15.246-13.613-16.144-41.271-1.345-55.782 14.814-14.974 41.72-13.613 55.174 1.81l314.928 318.339v-137.862c0-20.404 17.938-38.997 38.132-38.997 20.179 0 38.132 18.595 38.132 38.997v230.4c0 19.955-18.387 38.55-38.132 38.55h-227.885c-21.99-0.016-40.824-23.143-39.926-40.375v0zM5.525 781.315v-806.781c0-20.388 17.938-38.533 38.132-38.533h803.001c30.958 0 45.308 15.887 45.308 44.892v556.443c0 20.869-18.387 39.446-38.581 39.446-20.179-0.449-38.132-19.042-37.685-39.446v-524.7h-734.375v742.383h519.031c20.196 0 38.581 18.13 38.581 38.55 0 20.404-18.387 38.55-38.581 38.55h-549.524c-28.715-0.016-45.308-29.485-45.308-50.801v0z" />
<glyph unicode="&#xe92f;" glyph-name="icon_at" d="M524.742 623.886c-27.994-2.734-47.597-11.369-63.575-22.251-22.58-15.375-46.526-43.782-62.505-68.873-15.904-24.974-30.326-56.9-37.096-95.383-15.47-87.839 12.598-157.465 76.301-179.048 34.659-11.74 75.337 2.013 96.412 16.974 50.711 35.93 80.941 104.507 97.471 175.891 5.595 24.148 12.704 50.489 10.596 81.578-4.058 60.746-58.892 96.867-117.604 91.113zM821.435 196.852c-79.034-32.656-212.076-31.597-223.572 63.597-4.842 0.742-7.035-4.927-9.547-7.417-23.184-23.195-51.856-45.255-86.875-58.298-42.287-15.724-98.191-15.343-138.816 4.238-68.756 33.197-116.565 116.491-103.839 224.653 11.168 94.917 60.534 161.904 120.792 211.917 50.415 41.832 165.56 93.476 244.763 36.015 24.837-18.034 41.568-40.974 55.098-72.052 9.854 23.015 16.466 49.239 25.431 73.111 30.718 0 61.456 0 92.173 0-30.198-95.458-59.517-184.75-90.065-281.86-8.636-27.475-30.103-66.372-22.251-98.53 5.478-22.431 27.91-36.142 52.979-37.117 59.941-2.257 97.524 38.060 123.971 71.014 29.542 36.831 51.475 80.306 60.386 133.508 21.732 129.777-35.772 218.031-97.471 279.73-63.501 63.511-151.097 112.602-272.324 115.484-130.022 3.137-217.681-38.145-290.315-97.482-68.513-55.935-129.577-134.429-154.699-233.098-30.156-118.535-1.409-238.089 50.87-311.517 51.326-72.147 132.83-132.31 230.978-156.819 113.513-28.365 238.332-10.362 338.008 20.111 14.103-21.552 22.135-49.218 32.858-74.181-73.705-26.701-149.666-46.6-242.645-46.6-93.794 0-173.665 17.663-240.525 47.681-128.115 57.514-234.401 159.976-267.026 309.409-39.65 181.687 40.349 342.723 120.804 436.57 44.386 51.771 96.347 94.26 159.987 128.209 62.208 33.197 144.856 59.602 228.881 63.575 145.173 6.866 241.575-33.059 323.173-91.125 81.016-57.652 145.926-131.695 171.652-242.655 13.456-58.001 11.719-131.166-4.227-184.357-15.259-50.776-43.347-96.634-73.122-133.508-30.114-37.286-64.687-71.183-115.484-92.205z" />
<glyph unicode="&#xe930;" glyph-name="icon_attach" d="M447.491 160.765c24.76 24.76 49.519 49.519 74.279 74.279 48.076 48.076 96.263 96.263 144.339 144.339 32.199 32.199 64.397 64.397 96.485 96.485 5.218 5.218 10.326 10.659 14.878 16.543 6.551 8.327 12.991 16.543 18.32 25.648 5.218 9.104 9.216 18.875 13.213 28.535 6.44 15.877 9.104 31.755 11.325 48.742 7.883 61.067-19.43 128.018-67.95 165.99-12.991 10.215-25.759 19.43-40.97 25.981-15.544 6.662-30.533 12.435-47.188 14.878-32.976 4.885-67.173 4.219-98.595-8.105-26.647-10.548-50.186-24.316-70.726-44.745-2.332-2.332-4.663-4.663-6.995-6.995-33.531-33.531-67.062-67.062-100.593-100.593-48.631-48.631-97.373-97.373-146.005-146.005-32.532-32.532-65.064-65.064-97.596-97.596-20.985-20.985-40.082-44.301-53.628-70.948-7.439-14.767-13.99-30.311-18.875-46.189-4.996-16.099-7.439-32.421-9.549-49.075-3.664-28.313-1.443-56.625 3.997-84.605 5.44-28.202 16.655-56.070 31.199-80.719 14.767-24.982 33.975-48.409 56.514-66.84 12.991-10.659 26.536-20.874 41.192-29.201 14.323-7.994 29.534-14.545 44.967-20.096 26.758-9.66 56.070-14.212 84.383-14.656 28.535-0.444 58.291 3.886 85.382 12.879 15.766 5.218 31.311 11.769 45.966 19.652 14.878 7.994 28.313 17.987 41.525 28.424 11.769 9.216 22.095 19.874 32.532 30.311 36.751 36.751 73.502 73.502 110.253 110.253 48.298 48.298 96.485 96.485 144.783 144.783 28.757 28.757 57.514 57.514 86.27 86.27 68.617 68.617 107.81 164.88 102.481 262.364-3.109 57.403-19.319 114.028-49.297 163.214-30.533 50.075-74.279 92.932-125.575 121.578-50.075 27.98-107.033 43.191-164.436 44.19-57.958 0.999-115.471-13.324-166.878-39.749-31.977-16.543-60.956-39.194-86.27-64.509-11.88-11.88-23.649-23.649-35.53-35.53-45.3-45.3-90.601-90.601-135.79-135.79-41.081-41.081-82.051-82.051-123.132-123.132-6.551-6.551-13.102-13.102-19.652-19.652-10.104-10.104-16.21-24.982-16.21-39.305 0-13.657 5.996-29.867 16.21-39.305 10.548-9.66 24.427-16.877 39.305-16.21 14.767 0.666 28.646 5.663 39.305 16.21 11.325 11.325 22.539 22.539 33.864 33.864 26.758 26.758 53.628 53.628 80.386 80.386 31.755 31.755 63.509 63.509 95.264 95.264 26.092 26.092 52.184 52.184 78.276 78.276 12.991 12.991 25.759 26.425 39.305 38.861 5.885 5.44 12.102 10.548 18.431 15.433-3.775-2.887-7.439-5.774-11.214-8.66 19.541 14.989 40.748 27.424 63.287 37.084-4.441-1.888-8.882-3.775-13.213-5.552 24.094 10.104 49.297 16.988 75.167 20.541-4.885-0.666-9.882-1.332-14.767-1.999 25.759 3.331 51.74 3.331 77.388 0-4.885 0.666-9.882 1.332-14.767 1.999 25.87-3.553 51.074-10.326 75.167-20.541-4.441 1.888-8.882 3.775-13.213 5.552 22.65-9.66 43.857-22.095 63.287-37.084-3.775 2.887-7.439 5.774-11.214 8.66 19.541-15.211 37.084-32.754 52.295-52.295-2.887 3.775-5.774 7.439-8.66 11.214 14.989-19.541 27.424-40.748 37.084-63.287-1.888 4.441-3.775 8.882-5.552 13.213 10.104-24.094 16.988-49.297 20.541-75.167-0.666 4.885-1.332 9.882-1.999 14.767 3.331-25.759 3.331-51.74 0-77.388 0.666 4.885 1.332 9.882 1.999 14.767-3.553-25.87-10.326-51.074-20.541-75.167 1.888 4.441 3.775 8.882 5.552 13.213-9.66-22.65-22.095-43.857-37.084-63.287 2.887 3.775 5.774 7.439 8.66 11.214-15.766-20.319-34.641-37.972-52.85-56.181-28.979-28.979-57.958-57.958-86.937-86.937-36.307-36.307-72.614-72.614-108.921-108.921-30.977-30.977-62.066-62.066-93.043-93.043-13.102-13.102-26.203-26.314-39.416-39.416-6.44-6.44-13.324-12.435-20.541-18.098 3.775 2.887 7.439 5.774 11.214 8.66-14.101-10.77-29.534-19.763-45.855-26.758 4.441 1.888 8.882 3.775 13.213 5.552-17.432-7.328-35.752-12.324-54.516-14.989 4.885 0.666 9.882 1.332 14.767 1.999-19.208-2.554-38.527-2.554-57.736 0 4.885-0.666 9.882-1.332 14.767-1.999-18.764 2.665-37.084 7.661-54.516 14.989 4.441-1.888 8.882-3.775 13.213-5.552-16.321 6.995-31.755 15.988-45.855 26.758 3.775-2.887 7.439-5.774 11.214-8.66-14.434 11.214-27.424 24.205-38.638 38.638 2.887-3.775 5.774-7.439 8.66-11.214-10.77 14.101-19.763 29.534-26.758 45.855 1.888-4.441 3.775-8.882 5.552-13.213-7.328 17.432-12.324 35.752-14.989 54.516 0.666-4.885 1.332-9.882 1.999-14.767-2.554 19.208-2.554 38.527 0 57.736-0.666-4.885-1.332-9.882-1.999-14.767 2.665 18.764 7.661 37.084 14.989 54.516-1.888-4.441-3.775-8.882-5.552-13.213 6.995 16.321 15.988 31.755 26.758 45.855-2.887-3.775-5.774-7.439-8.66-11.214 14.212 18.32 31.866 34.308 48.187 50.741 28.868 28.868 57.736 57.736 86.604 86.604 35.752 35.752 71.392 71.392 107.144 107.144 30.755 30.755 61.4 61.4 92.155 92.155 13.768 13.768 27.535 27.647 41.414 41.414 4.219 4.219 8.66 8.105 13.435 11.769-3.775-2.887-7.439-5.774-11.214-8.66 9.216 6.995 19.097 12.768 29.756 17.321-4.441-1.888-8.882-3.775-13.213-5.552 10.881 4.552 22.317 7.661 33.975 9.327-4.885-0.666-9.882-1.332-14.767-1.999 12.657 1.665 25.426 1.665 37.972 0-4.885 0.666-9.882 1.332-14.767 1.999 11.658-1.665 22.983-4.774 33.975-9.327-4.441 1.888-8.882 3.775-13.213 5.552 10.659-4.552 20.541-10.326 29.756-17.321-3.775 2.887-7.439 5.774-11.214 8.66 9.438-7.328 17.765-15.655 25.093-25.093-2.887 3.775-5.774 7.439-8.66 11.214 6.995-9.216 12.768-19.097 17.321-29.756-1.888 4.441-3.775 8.882-5.552 13.213 4.552-10.881 7.661-22.317 9.327-33.975-0.666 4.885-1.332 9.882-1.999 14.767 1.665-12.657 1.665-25.426 0-37.972 0.666 4.885 1.332 9.882 1.999 14.767-1.665-11.658-4.774-22.983-9.327-33.975 1.888 4.441 3.775 8.882 5.552 13.213-4.552-10.659-10.326-20.541-17.321-29.756 2.887 3.775 5.774 7.439 8.66 11.214-11.436-14.767-25.981-27.535-39.083-40.748-25.093-25.093-50.186-50.186-75.278-75.278-31.199-31.199-62.288-62.288-93.487-93.487-27.202-27.202-54.516-54.516-81.718-81.718-13.324-13.324-26.869-26.425-39.971-39.971-0.222-0.222-0.333-0.333-0.555-0.555-10.104-10.104-16.21-24.982-16.21-39.305 0-13.657 5.996-29.867 16.21-39.305 10.548-9.66 24.427-16.877 39.305-16.21 14.212 1.221 28.091 6.218 38.75 16.877v0z" />
<glyph unicode="&#xe931;" glyph-name="icon_back1" d="M775.314 950.247c-13.003 13.003-32.508 13.003-45.511 0l-481.117-479.492c-13.003-13.003-13.003-32.508 0-45.511l479.492-479.492c6.502-6.502 14.629-9.752 22.756-9.752s16.254 3.251 22.756 9.752c13.003 13.003 13.003 32.508 0 45.511l-455.111 456.736 456.736 456.736c11.378 13.003 11.378 32.508 0 45.511z" />
<glyph unicode="&#xe932;" glyph-name="icon_bookmark1" d="M137.846 920.616v-945.231c0-15.34 8.921-29.283 22.842-35.721 5.277-2.462 10.929-3.663 16.542-3.663 9.158 0 18.235 3.19 25.483 9.354l300.191 254.719 319.252-255.448c11.815-9.433 28.023-11.263 41.669-4.746 13.646 6.558 22.331 20.362 22.331 35.506v945.231c0 21.74-17.644 39.385-39.385 39.385h-669.539c-21.74 0-39.385-17.644-39.385-39.385z" />
<glyph unicode="&#xe933;" glyph-name="icon_check1" d="M0.214 432.172c21.104 42.209 63.314 94.97 137.18 73.866 63.314-21.104 105.523-84.419 137.18-168.836 253.255 284.912 464.301 485.405 717.556 548.719 31.657 0 42.209 0 21.104-21.104-274.359-189.942-538.167-474.854-749.213-844.183-10.553-10.553-21.104-10.553-31.657 0-42.209 105.523-73.866 211.046-126.627 316.569-21.104 52.762-52.762 94.97-105.523 94.97z" />
<glyph unicode="&#xe934;" glyph-name="icon_clock" d="M512-64c282.169 0 512 229.831 512 512s-229.831 512-512 512-512-229.831-512-512 229.831-512 512-512zM512 846.222c219.591 0 398.222-178.631 398.222-398.222s-178.631-398.222-398.222-398.222-398.222 178.631-398.222 398.222 178.631 398.222 398.222 398.222zM713.387 327.396l-144.498 144.498v260.551h-113.778v-308.338l177.493-177.493z" />
<glyph unicode="&#xe935;" glyph-name="icon_close1" d="M20.65 55.834c-27.413-27.421-27.409-71.864 0.008-99.277s71.866-27.413 99.278 0.007l392.085 392.153 392.116-392.116c27.413-27.413 71.864-27.413 99.277 0s27.413 71.864 0 99.277l-392.123 392.123 392.095 392.164c27.406 27.418 27.406 71.866-0.015 99.278-27.413 27.413-71.864 27.409-99.277-0.008l-392.088-392.157-392.118 392.123c-27.414 27.414-71.862 27.414-99.278 0s-27.416-71.862 0-99.278l392.133-392.128-392.093-392.159z" />
<glyph unicode="&#xe936;" glyph-name="icon_collapse" d="M942.819 713.776c18.434 18.434 48.32 18.434 66.753 0s18.434-48.32 0-66.753l-464.798-464.798c-18.434-18.434-48.32-18.434-66.753 0l-464.798 464.798c-18.434 18.434-18.434 48.32 0 66.753s48.32 18.434 66.753 0l431.421-431.421 431.421 431.421z" />
<glyph unicode="&#xe937;" glyph-name="icon_delete1" d="M886.011 671.327h-374.011q-189.006 0-378.011 0.14c-12.34 0-17.721-1.66-15.16-16.88 7.48-44.221 13.040-88.783 19.221-133.204q13-92.503 25.941-185.085c8.34-59.222 17.041-118.423 25.321-177.645 9.4-67.162 18.481-134.344 27.781-201.506 2-14.5 9.4-21.181 25.221-21.141q269.448 0.62 538.876 0.28c17.601 0 23.241 4.78 25.721 22.141q9.3 65.142 18.241 130.324c12.24 88.903 24.221 177.825 36.621 266.708q20.681 148.104 41.681 296.149c2.76 19.721 2.34 19.721-17.441 19.721zM942.793 726.628c-1 18.961 0 38.001-0.3 57.042-0.3 24.421-10.44 44.761-32.001 55.562-13.77 6.747-29.912 10.876-46.971 11.317l-0.15 0.003c-47.501 1.44-95.063 0.78-142.604 0.36-11.24 0-15.68 2.68-15.8 15.1-0.52 52.002-43.341 93.743-95.303 93.863q-98.343 0.26-196.686 0c-50.141-0.14-93.563-42.121-94.223-92.003-0.18-13.22-4-17.181-17.181-17.020-49.041 0.6-98.003 0.4-147.124 0-46.001-0.4-73.282-28.541-73.222-74.422 0-15.020 0-30.001 0-45.041 0-20.181 0-20.221 20.641-20.241h408.132c138.004 0 277.428 0.12 416.012-0.22 12-0.020 17.461 2.6 16.78 15.7z" />
<glyph unicode="&#xe938;" glyph-name="icon_denied" d="M1021.453 906.507l-50.945 50.945-305.672-305.672c-35.662 30.567-86.607 50.945-152.836 50.945-122.269 0-203.781-61.134-203.781-152.836v-203.781c0-15.284 5.095-30.567 10.189-40.756l-315.861-315.861 50.945-56.040 967.96 973.054zM410.109-61.453h203.781v305.672c61.134 0 101.891 40.756 101.891 101.891v203.781l-305.672-305.672v-305.672zM512 753.672c61.134 0 101.891 40.756 101.891 101.891s-40.756 101.891-101.891 101.891c-61.134 0-101.891-40.756-101.891-101.891s40.756-101.891 101.891-101.891v0z" />
<glyph unicode="&#xe939;" glyph-name="icon_download" d="M516.267 157.867l-307.2 298.667h238.933v503.467h128v-503.467h238.933zM814.933-64h-605.867v119.467h605.867z" />
<glyph unicode="&#xe93a;" glyph-name="icon_edit1" d="M788.757 960l-118.486-118.486 235.243-235.243 118.486 118.486-235.243 235.243zM630.919 802.162l-528-528 235.243-235.243 528 528-235.243 235.243zM67.027 231.351l-67.027-295.351 295.351 67.027-228.324 228.324z" />
<glyph unicode="&#xe93b;" glyph-name="icon_emoji1" d="M511.989 960c-282.727 0-511.989-229.262-511.989-512.011 0-282.794 229.262-511.989 511.989-511.989 282.749 0 512.011 229.194 512.011 511.989 0 282.749-229.262 512.011-512.011 512.011zM700.997 704.591c44.953 0 81.397-36.387 81.397-81.317 0-45.010-36.443-81.397-81.397-81.397-44.931 0-81.317 36.387-81.317 81.397 0 44.931 36.387 81.317 81.317 81.317zM322.97 704.591c44.931 0 81.373-36.387 81.373-81.317 0-45.010-36.443-81.397-81.373-81.397s-81.373 36.387-81.373 81.397c0 44.931 36.454 81.317 81.373 81.317zM511.989 93.708c-155.898 0-284.364 116.941-302.911 267.867h605.844c-18.546-150.914-146.978-267.867-302.933-267.867z" />
<glyph unicode="&#xe93c;" glyph-name="icon_events" d="M222.042 960c-12.912 0-23.379-10.467-23.379-23.379v-55.642h-66.747c-64.456 0-116.895-52.439-116.895-116.895v-711.189c0-64.456 52.439-116.895 116.895-116.895h760.168c64.456 0 116.895 52.439 116.895 116.895v711.189c0 64.456-52.439 116.895-116.895 116.895h-66.747v55.642c0 12.912-10.467 23.379-23.379 23.379s-23.379-10.467-23.379-23.379v-55.642h-533.158v55.642c0 12.912-10.467 23.379-23.379 23.379zM892.084-17.242h-760.168c-38.674 0-70.137 31.463-70.137 70.137v544.263h900.442v-544.263c0-38.674-31.463-70.137-70.137-70.137zM778.579 834.221v-79.021c0-12.912 10.467-23.379 23.379-23.379s23.379 10.467 23.379 23.379v79.021h66.747c38.674 0 70.137-31.463 70.137-70.137v-120.168h-900.442v120.168c0 38.674 31.463 70.137 70.137 70.137h66.747v-79.021c0-12.912 10.467-23.379 23.379-23.379s23.379 10.467 23.379 23.379v79.021h533.158zM685.425 362.739l-105.348 15.309-47.113 95.461c-3.939 7.979-12.066 13.031-20.964 13.031s-17.027-5.052-20.964-13.031l-47.113-95.461-105.348-15.309c-8.807-1.279-16.122-7.449-18.874-15.912s-0.456-17.754 5.917-23.966l76.23-74.308-17.995-104.92c-1.506-8.769 2.099-17.635 9.3-22.867 7.198-5.23 16.744-5.922 24.62-1.779l94.227 49.538 94.227-49.535c3.42-1.8 7.156-2.686 10.876-2.686 4.846 0 9.672 1.506 13.745 4.465 7.201 5.23 10.806 14.095 9.3 22.867l-17.995 104.92 76.23 74.308c6.373 6.212 8.667 15.503 5.917 23.966s-10.067 14.631-18.874 15.909zM580.713 273.459c-5.51-5.37-8.026-13.109-6.724-20.693l12.066-70.345-63.175 33.212c-3.406 1.791-7.142 2.686-10.878 2.686s-7.474-0.895-10.878-2.686l-63.175-33.212 12.066 70.345c1.302 7.584-1.213 15.323-6.724 20.693l-51.109 49.821 70.633 10.263c7.615 1.106 14.198 5.889 17.602 12.788l31.583 64.005 31.587-64.002c3.406-6.899 9.988-11.682 17.602-12.788l70.633-10.263-51.109-49.823z" />
<glyph unicode="&#xe93d;" glyph-name="icon_expand" d="M818.847 447.412l-507.885-429.116 70.54-82.296 605.465 511.412-605.465 512.588-70.54-82.296zM544.918 447.412l-507.885-429.116 69.364-82.296 605.465 511.412-605.465 512.588-69.364-82.296z" />
<glyph unicode="&#xe93e;" glyph-name="icon_fire1" d="M779.364 7.065c-28.030-21.562-64.685-42.045-106.73-57.138-8.625-3.234-17.249 5.39-15.093 14.015 6.468 26.952 10.781 54.982 10.781 84.090 0 149.853-105.652 277.067-142.307 318.034-7.547 7.547-19.405 7.547-25.874 0-36.655-39.889-142.307-167.103-142.307-318.034 0-33.421 5.39-66.841 14.015-97.027 2.156-8.625-5.39-17.249-14.015-15.093-72.231 19.405-130.448 50.67-152.009 67.919-175.727 148.775-114.277 382.719-32.342 505.62 90.559 139.072 198.367 257.661 192.976 423.686-1.078 19.405 20.484 32.342 37.733 23.718 136.916-68.997 230.709-218.85 255.505-338.517 36.655 34.499 51.748 88.403 52.826 135.838 0 22.64 29.108 34.499 45.279 17.249 122.901-132.604 312.643-536.884 21.562-764.359z" />
<glyph unicode="&#xe93f;" glyph-name="icon_gather_classic" d="M503.003 228.571h17.993c115.712 0 210.432 94.72 210.432 210.432v310.565c0 115.712-94.72 210.432-210.432 210.432h-17.993c-115.712 0-210.432-94.72-210.432-210.432v-310.565c0-115.712 94.72-210.432 210.432-210.432zM365.714 749.568c0 75.703 61.586 137.289 137.289 137.289h17.993c75.703 0 137.289-61.586 137.289-137.289v-310.565c0-75.703-61.586-137.289-137.289-137.289h-17.993c-75.703 0-137.289 61.586-137.289 137.289v310.565zM768 9.143h-182.857v79.726c146.286 30.647 293.303 172.032 293.303 359.131 0 20.187-16.75 36.571-36.937 36.571s-36.718-16.384-36.718-36.571c0-172.251-120.393-292.571-292.645-292.571s-292.645 120.32-292.645 292.571c0 20.187-16.384 36.571-36.571 36.571s-37.376-16.384-37.376-36.571c0-187.099 147.017-328.558 293.303-359.131v-79.726h-182.857c-20.187 0-36.571-16.384-36.571-36.571s16.384-36.571 36.571-36.571h512c20.187 0 36.571 16.384 36.571 36.571s-16.384 36.571-36.571 36.571z" />
<glyph unicode="&#xe940;" glyph-name="icon_gather_group" d="M382.844 850.14c0-60.683-49.193-109.875-109.875-109.875s-109.875 49.193-109.875 109.875c0 60.683 49.193 109.875 109.875 109.875s109.875-49.193 109.875-109.875zM83.443 496.69h379.052c0 0.512 0 8.256 0 97.251 0 102.387-111.747 104.259-111.747 104.259h-155.557c0 0-111.747-1.248-111.747-104.259 0-88.995 0-96.739 0-97.251zM860.907 850.14c0-60.683-49.193-109.875-109.875-109.875s-109.875 49.193-109.875 109.875c0 60.683 49.193 109.875 109.875 109.875s109.875-49.193 109.875-109.875zM828.81 698.2h-155.557c0 0-111.747-1.248-111.747-104.259 0-88.995 0-96.739 0-97.251h379.052c0 0.512 0 8.256 0 97.251 0 102.387-111.747 104.259-111.747 104.259zM382.844 289.483c0-60.683-49.193-109.875-109.875-109.875s-109.875 49.193-109.875 109.875c0 60.683 49.193 109.875 109.875 109.875s109.875-49.193 109.875-109.875zM83.443-63.968h379.052c0 0.512 0 8.256 0 97.251 0 102.387-111.747 104.259-111.747 104.259h-155.557c0 0-111.747-1.248-111.747-104.259 0-88.995 0-96.755 0-97.251zM860.907 289.483c0-60.683-49.193-109.875-109.875-109.875s-109.875 49.193-109.875 109.875c0 60.683 49.193 109.875 109.875 109.875s109.875-49.193 109.875-109.875zM828.81 137.526h-155.557c0 0-111.747-1.248-111.747-104.259 0-88.995 0-96.739 0-97.251h379.052c0 0.512 0 8.256 0 97.251 0 102.387-111.747 104.259-111.747 104.259z" />
<glyph unicode="&#xe941;" glyph-name="icon_gather_stream" d="M1025.366 446.634v-51.2c-169.662 0-307.2-137.538-307.2-307.2v0h-51.2c0.323 197.809 160.591 358.077 358.369 358.4h0.031zM820.566 88.234h51.2c0.129 84.779 68.821 153.471 153.588 153.6h0.012v51.2c-113.108 0-204.8-91.692-204.8-204.8v0zM410.966 593.067l256.456-146.432-256.456-146.546zM462.166 388.267l102.4 58.368-102.4 58.254zM974.166 88.234h51.2v51.2h-51.2zM897.479 805.034h-768c-70.689-0.064-127.984-57.32-128.113-127.988v-460.812c0.064-70.707 57.399-128 128.113-128h435.087v51.2h-435.087c0 0 0 0 0 0-42.438 0-76.849 34.371-76.913 76.793v460.807c0.064 42.429 34.476 76.8 76.913 76.8 0 0 0 0 0 0h768c42.367-0.064 76.687-34.424 76.687-76.8 0 0 0 0 0 0v0-128h51.2v128c-0.064 70.627-57.269 127.871-127.874 128h-0.012z" />
<glyph unicode="&#xe942;" glyph-name="icon_gif1" d="M82.944 152.544c-18.944 0-35.040 6.656-48.288 20-13.248 13.312-19.904 29.312-19.904 47.936v155.456c0 18.944 6.688 35.040 20 48.288 13.344 13.248 29.408 19.904 48.192 19.904 18.944 0 35.008-6.688 48.192-20 13.184-13.344 19.776-29.408 19.776-48.192v-32.512h-44.576v33.408c0 6.816-2.4 12.672-7.264 17.504s-10.688 7.296-17.504 7.296c-6.848 0-12.64-2.432-17.408-7.296-4.736-4.832-7.168-10.688-7.168-17.504v-155.904c0-6.816 2.4-12.64 7.168-17.408 4.768-4.736 10.56-7.168 17.408-7.168 6.816 0 12.64 2.368 17.504 7.168 4.832 4.736 7.264 10.528 7.264 17.344v55.968h-23.84v43.2h68.416v-99.552c0-18.944-6.688-35.008-20-48.192-13.344-13.152-29.312-19.744-47.968-19.744zM231.136 156.16h-42.976v284.8h42.976v-284.8zM312.512 156.16h-42.976v284.992h122.272v-43.2h-79.296v-77.728h57.952v-43.2h-57.952v-120.864zM686.4 960h-567.36v-421.408h32v-0.128h333.952v-470.688l-365.952-0.128v-131.648h785.92v804.576z" />
<glyph unicode="&#xe943;" glyph-name="icon_harth" d="M946.41-64v527.518c0 119.443-48.881 228.046-127.598 306.763-78.766 78.766-187.368 127.646-306.811 127.646s-228.046-48.881-306.763-127.646c-78.766-78.718-127.646-187.32-127.646-306.763v-527.518h-62.072v527.518c0 136.569 55.836 260.713 145.827 350.655 89.942 89.99 214.087 145.827 350.655 145.827s260.713-55.836 350.655-145.827c89.99-89.942 145.827-214.087 145.827-350.655v-527.518h-62.072zM335.233 391.132c16.118 40.294 35.593 68.068 54.301 94.691 25.903 36.888 50.272 71.522 60.825 134.986 0.72 4.221 4.701 7.051 8.922 6.332 0.911-0.144 1.727-0.432 2.494-0.863 9.402-4.509 154.893-76.319 185.737-230.444 2.35 3.79 4.557 8.299 6.572 13.431 4.701 11.992 8.107 26.911 9.45 43.172 0.288 4.269 4.029 7.483 8.299 7.147 2.494-0.192 4.605-1.535 5.852-3.502 10.505-14.631 35.593-73.249 23.649-140.694-7.004-39.814-26.719-82.843-69.46-121.986-1.487-1.391-3.358-2.015-5.229-2.015l-95.075-0.048c-4.269 0-7.771 3.454-7.771 7.723 0 1.487 0.432 2.878 1.103 4.029 9.018 17.461 16.166 56.652 14.918 96.13-0.672 20.051-3.502 40.054-9.45 56.94-4.269-28.398-12.28-57.659-23.553-84.282-13.575-32.043-31.948-60.297-54.301-78.766-1.439-1.199-3.166-1.775-4.941-1.775h-59.050c-1.871 0-3.598 0.624-4.941 1.775-25.376 18.996-50.224 47.777-59.866 87.448-7.435 30.46-5.852 67.205 11.513 110.569zM281.268 66.908c-17.125 0-31.036 13.863-31.036 31.036 0 17.125 13.911 30.988 31.036 30.988h461.464c17.125 0 31.036-13.863 31.036-30.988 0-17.173-13.911-31.036-31.036-31.036h-461.464z" />
<glyph unicode="&#xe944;" glyph-name="icon_hashtag" d="M1012.768 573.192v107.307h-217.226l55.084 257.037-104.947 22.463-59.878-279.5h-247.952l55.084 257.037-104.947 22.463-59.878-279.5h-316.879v-107.307h293.879l-53.654-250.384h-240.226v-107.307h217.226l-55.084-257.037 104.947-22.463 59.878 279.5h247.952l-55.084-257.037 104.947-22.463 59.878 279.5h316.879v107.307h-293.879l53.654 250.384zM609.149 322.808h-247.952l53.654 250.384h247.952z" />
<glyph unicode="&#xe946;" glyph-name="icon_levelup" d="M469.282 350.105h85.096c5.333 0 9.656-4.323 9.656-9.656v-69.56c0-5.333-4.323-9.656-9.656-9.656h-85.096c-5.333 0-9.656 4.323-9.656 9.656v69.56c0 5.333 4.323 9.656 9.656 9.656zM469.282 217.904h85.096c5.333 0 9.656-4.323 9.656-9.656v-25.124c0-5.333-4.323-9.656-9.656-9.656h-85.096c-5.333 0-9.656 4.323-9.656 9.656v25.124c0 5.333 4.323 9.656 9.656 9.656zM503.52 710.321l-106.85-125.982c-1.182-1.386-1.901-3.199-1.901-5.179 0-4.421 3.584-8.005 8.005-8.005 0 0 0.001 0 0.001 0h56.829v-168.089c0-5.333 4.323-9.656 9.656-9.656h85.119c5.323 0.012 9.633 4.331 9.633 9.656 0 0 0 0 0 0v0 168.089h56.851c0 0 0.001 0 0.001 0 4.421 0 8.005 3.584 8.005 8.005 0 1.98-0.719 3.792-1.91 5.19l0.009-0.011-106.805 125.982c-2.016 2.361-4.995 3.848-8.322 3.848s-6.306-1.487-8.309-3.833l-0.012-0.015zM512 960c-282.673 0-512-229.327-512-512s229.327-512 512-512 512 229.327 512 512-229.327 512-512 512zM512 75.799c-205.499 0-372.088 166.589-372.088 372.088s166.589 372.088 372.088 372.088c205.459 0 372.024-166.525 372.088-371.969v-0.006c0-205.499-166.589-372.088-372.088-372.088v0z" />
<glyph unicode="&#xe947;" glyph-name="icon_lock" d="M807.595 543.346h-28.103l-0.113 140.060c-0.113 152.576-124.246 276.708-276.821 276.594s-276.708-124.246-276.594-276.821l0.228-140.060h-10.012c-52.451-0.113-95.005-42.667-94.891-95.118v-416.996c0-52.451 42.667-95.005 95.118-95.005l591.417 0.341c52.451 0 95.005 42.553 94.891 95.005v417.109c0 52.451-42.667 94.891-95.118 94.891zM328.135 543.118l-0.228 140.060c0 96.37 78.279 174.762 174.649 174.877 96.37 0 174.762-78.393 174.762-174.649l0.228-140.060-349.411-0.228z" />
<glyph unicode="&#xe948;" glyph-name="icon_marker" d="M512 960c-207.076 0-374.329-167.253-374.329-374.329 0-290.133 374.329-649.671 374.329-649.671s374.329 360.676 374.329 649.671c0 207.076-167.253 374.329-374.329 374.329zM512 413.867c-94.436 0-170.667 76.231-170.667 170.667s76.231 170.667 170.667 170.667 170.667-76.231 170.667-170.667c0-94.436-76.231-170.667-170.667-170.667z" />
<glyph unicode="&#xe949;" glyph-name="icon_members" d="M669.615 566.152c0-87.004-70.532-157.536-157.536-157.536s-157.536 70.532-157.536 157.536c0 87.004 70.532 157.536 157.536 157.536s157.536-70.532 157.536-157.536zM649.135 424.96c-35.406-34.422-83.77-55.728-137.017-55.728-53.326 0-101.729 21.346-137.174 55.807-64.275-51.711-102.083-131.464-99.051-214.485v-14.375c0-22.055 12.248-42.141 31.743-52.381 63.881-33.319 132.685-50.254 204.482-50.254 71.679 0 140.325 16.935 204.285 50.136 19.534 10.2 31.783 30.365 31.783 52.381v14.454c2.993 83.021-34.815 162.735-99.051 214.446zM964.995 644.92c0-65.253-52.899-118.152-118.152-118.152s-118.152 52.899-118.152 118.152c0 65.253 52.899 118.152 118.152 118.152s118.152-52.899 118.152-118.152zM949.595 539.056c-26.545-25.797-62.778-41.826-102.753-41.826s-76.326 15.99-102.91 41.865c-29.223-23.552-51.002-54.862-63.172-89.638 46.788-40.172 79.871-93.064 95.821-151.077 22.961-4.962 46.394-7.877 70.3-7.877 53.759 0 105.313 12.642 153.243 37.612 14.611 7.64 23.788 22.764 23.788 39.305v10.791c2.245 62.266-26.112 121.972-74.318 160.844zM295.349 644.881c0-65.253-52.899-118.152-118.152-118.152s-118.152 52.899-118.152 118.152c0 65.253 52.899 118.152 118.152 118.152s118.152-52.899 118.152-118.152zM343.279 449.418c-12.248 34.815-34.028 66.126-63.211 89.638-26.624-25.836-62.896-41.865-102.91-41.865-39.975 0-76.208 15.99-102.792 41.826-48.167-38.833-76.484-98.578-74.199-160.805v-10.831c0-16.541 9.176-31.704 23.827-39.305 47.852-25.009 99.405-37.612 153.164-37.612 23.945 0 47.379 2.914 70.3 7.877 15.951 58.013 48.994 110.984 95.821 151.077z" />
<glyph unicode="&#xe94a;" glyph-name="icon_notes1" d="M56.553 29.916l79.178 145.673c2.094-5.574 6.891-9.689 12.75-10.78l0.105-0.016c6.17-1.195 12.339-2.229 18.68-3.086l-80.555-148.245c-3.002-5.341-8.625-8.895-15.080-8.912h-0.002c-3.010 0.009-5.842 0.765-8.321 2.095l0.095-0.047c-5.351 3.013-8.907 8.657-8.907 15.132 0 2.998 0.763 5.818 2.103 8.276l-0.045-0.091zM168.466 235.911c128.707 236.511 430.683 606.524 766.934 724.091-112.941-9.426-305.403-38.742-466.844-131.45-14.911-8.57-29.65-17.652-44.044-27.42l-65.641-131.28c-2.902-5.641-8.684-9.432-15.349-9.432-0.146 0-0.292 0.002-0.438 0.005h0.021c-6.751 0.217-12.51 4.25-15.21 10.004l-0.045 0.107-14.91 33.763c-17.88-20.161-34.647-42.323-49.626-65.738l-1.274-2.129c-18.927-29.827-37.437-64.604-53.344-100.784l-2.012-5.131 9.939-139.674c0.034-0.402 0.053-0.87 0.053-1.344 0-6.569-3.743-12.262-9.213-15.066l-0.095-0.045c-2.27-1.235-4.971-1.961-7.841-1.961-4.149 0-7.945 1.517-10.861 4.027l0.021-0.018-22.795 18.852c-6.158-30.686-9.682-65.961-9.682-102.060 0-25.165 1.713-49.929 5.027-74.183l-0.316 2.818zM527.51 356.744l129.728 68.719c2.048 5.655 4.113 11.312 5.828 17.138 53.814 172.067 222.11 390.064 306.43 492.376-334.187-104.711-646.787-487.406-770.868-715.515l-13.882-25.535c136.935-17.995 304.374 5.313 406.345 119.111l-58.954 11.824c-7.885 1.627-13.728 8.513-13.728 16.764 0 6.517 3.647 12.184 9.010 15.069l0.091 0.045zM688.609-29.721h-616.974c-9.466 0-17.138-7.674-17.138-17.138s7.674-17.138 17.138-17.138v0h616.974c9.466 0 17.138 7.674 17.138 17.138s-7.674 17.138-17.138 17.138v0z" />
<glyph unicode="&#xe94b;" glyph-name="icon_notification" d="M705.181 102.468c26.356-60.036-0.911-130.131-61.018-156.416-60.036-26.356-130.061 0.946-156.381 61.053-7.080 16.017-9.953 32.804-9.743 49.276l197.492 86.602c12.231-10.934 22.571-24.428 29.65-40.515zM95.358 416.282c-55.725 140.189-27.371 273.825 55.936 361.233-3.435 5.257-6.905 10.163-9.497 16.192-26.356 60.001 0.946 129.956 60.983 156.276 60.036 26.356 130.061-1.051 156.416-61.018 2.488-5.678 3.855-11.565 5.327-17.418 124.804 2.524 247.995-73.459 312.376-202.714 0 0 95.364-218.941 200.085-236.359 3.225-0.175 59.406-1.577 76.544-42.513 16.157-38.727-17.103-90.562-74.966-115.48l-626.611-270.040c-57.793-24.919-121.649-14.93-135.317 24.709-13.493 39.078 16.122 75.422 18.926 78.647 59.125 90.843-40.2 308.487-40.2 308.487z" />
<glyph unicode="&#xe94c;" glyph-name="icon_person" d="M744.844 727.148c0-128.597-104.248-232.844-232.844-232.844s-232.844 104.248-232.844 232.844c0 128.597 104.248 232.844 232.844 232.844s232.844-104.248 232.844-232.844zM512 436.111c-206.049 0-373.099-167.049-373.099-373.099v-127.020h746.183v127.020c0.015 206.049-167.035 373.099-373.084 373.099z" />
<glyph unicode="&#xe94d;" glyph-name="icon_photo" d="M959.048 866.632h-893.894c-35.927 0-65.155-30.647-65.155-67.995v-603.728l326.36 323.897c7.612 7.612 21.090 7.612 28.701 0l157.819-157.819 285.64 240.97c5.134 4.322 12.052 5.838 18.523 4.044 6.462-1.793 11.626-6.66 13.785-13.012l181.943-533.705c7.265 11.176 11.228 24.229 11.228 37.878v701.475c0 37.348-29.228 67.995-64.951 67.995zM216.166 552.024c-57.238 0-103.922 46.481-103.922 103.922s46.684 104.125 103.922 104.125c57.441 0 104.125-46.684 104.125-104.125s-46.685-103.922-104.125-103.922zM525.36 318.409c-0.182-0.166-0.257-0.414-0.447-0.573l-339.645-288.467h773.78c6.773 0 13.42 1.416 19.823 3.555l-176.892 518.827-276.619-233.342zM340.711 475.754l-340.711-337.997v-40.595c0-37.549 29.228-67.793 65.155-67.793h54.627l361.956 305.35-141.027 141.037z" />
<glyph unicode="&#xe94e;" glyph-name="icon_placeholder" d="M716.8 294.4v102.4h-61.44c0 5.12-5.12 10.24-5.12 15.36l40.96 40.96-71.68 71.68-40.96-40.96c-5.12 0-10.24 5.12-15.36 5.12v61.44h-102.4v-61.44c-5.12 0-10.24-5.12-15.36-5.12l-40.96 40.96-71.68-71.68 40.96-40.96c0-5.12-5.12-10.24-5.12-15.36h-61.44v-102.4h61.44c0-5.12 5.12-10.24 5.12-15.36l-40.96-40.96 71.68-71.68 40.96 40.96c5.12 0 10.24-5.12 15.36-5.12v-61.44h102.4v61.44c5.12 0 10.24 5.12 15.36 5.12l40.96-40.96 71.68 71.68-40.96 40.96c0 5.12 5.12 10.24 5.12 15.36h61.44zM512 294.4c-30.72 0-51.2 20.48-51.2 51.2s20.48 51.2 51.2 51.2 51.2-20.48 51.2-51.2c0-30.72-20.48-51.2-51.2-51.2zM972.8 960h-921.6c-30.72 0-51.2-20.48-51.2-51.2v-921.6c0-25.6 20.48-51.2 51.2-51.2h921.6c25.6 0 51.2 25.6 51.2 51.2v921.6c0 30.72-25.6 51.2-51.2 51.2zM512 857.6c30.72 0 51.2-20.48 51.2-51.2s-20.48-51.2-51.2-51.2c-25.6 0-51.2 25.6-51.2 51.2 0 30.72 25.6 51.2 51.2 51.2zM153.6 857.6h153.6c30.72 0 51.2-20.48 51.2-51.2s-20.48-51.2-51.2-51.2h-153.6c-25.6 0-51.2 25.6-51.2 51.2 0 30.72 25.6 51.2 51.2 51.2zM921.6 38.4h-819.2v614.4h819.2v-614.4z" />
<glyph unicode="&#xe94f;" glyph-name="icon_play" d="M55.351 59.457c2.118-95.346 97.374-153.080 180.83-107.689l671.113 390.439c36.551 21.293 61.353 60.308 61.353 106.030 0 45.723-24.801 84.738-61.353 106.031l-671.113 389.885c-83.455 45.391-178.712-11.792-180.83-107.135z" />
<glyph unicode="&#xe950;" glyph-name="icon_plus" d="M255.984 484.578c-0.16 0-0.32 0-0.512 0-20.193 0-36.578-16.353-36.578-36.578s16.353-36.578 36.578-36.578c0.192 0 0.352 0 0.544 0h511.968c0.16 0 0.32 0 0.512 0 20.193 0 36.578 16.353 36.578 36.578s-16.353 36.578-36.578 36.578c-0.192 0-0.352 0-0.544 0zM548.578 704.016c0 0.16 0 0.32 0 0.512 0 20.193-16.353 36.578-36.578 36.578s-36.578-16.353-36.578-36.578c0-0.192 0-0.352 0-0.544v0.032-512c0-0.16 0-0.32 0-0.512 0-20.193 16.353-36.578 36.578-36.578s36.578 16.353 36.578 36.578c0 0.192 0 0.352 0 0.544v-0.032zM512 960.032c-282.354 0-512-229.678-512-512s229.678-512 512-512c282.354 0 512 229.678 512 512s-229.678 512-512 512zM512 886.875c242.831 0 438.875-196.076 438.875-438.875s-196.044-438.875-438.875-438.875c-242.831 0-438.875 196.044-438.875 438.875s196.044 438.875 438.875 438.875z" />
<glyph unicode="&#xe951;" glyph-name="icon_reply1" d="M1005.708 104.794l-31.078 29.339c-110.163 104.1-255.999 162.103-407.542 162.103h-149.412v-175.027l-399.31 335.035 399.31 335.035v-175.027h0.294c175.688 0 335.439-76.856 444.843-200.629 74.969-84.782 126.284-191.613 142.895-310.829zM1018.693 117.791c-29.51 27.869-58.812 55.529-91.642 79.588-49.232 36.064-104.063 64.324-161.748 84.194-57.244 19.722-117.648 30.649-178.15 32.707-27.293 0.931-54.684 0.343-81.976 0.343-29.167 0-58.334 0-87.501 0-9.935 0-18.375-8.416-18.375-18.375 0-51.192 0-102.397 0-153.589 0-7.142 0-14.296 0-21.437 10.461 4.336 20.911 8.661 31.372 12.997-21.927 18.387-43.842 36.786-65.77 55.174-36.615 30.711-73.218 61.433-109.833 92.144-14.185 11.907-28.371 23.802-42.556 35.708-32.499 27.268-65.010 54.549-97.509 81.817-27.354 22.944-54.096 47.003-82.221 68.991-0.49 0.38-0.955 0.796-1.433 1.2 0-8.661 0-17.321 0-25.982 13.291 11.147 26.57 22.295 39.861 33.442 31.74 26.631 63.491 53.263 95.231 79.894 38.391 32.205 76.77 64.41 115.161 96.615 33.32 27.954 66.64 55.909 99.959 83.875 16.047 13.463 33.112 26.288 48.412 40.621 0.22 0.208 0.465 0.392 0.698 0.588-10.461 4.336-20.911 8.661-31.372 12.997 0-51.192 0-102.397 0-153.589 0-7.142 0-14.296 0-21.437 0-9.935 8.416-18.375 18.375-18.375 13.646 0 27.305-0.453 40.927-1.372 6.529-0.441 13.058-0.992 19.575-1.654 3.565-0.355 7.129-0.759 10.694-1.176 1.298-0.159 2.585-0.318 3.871-0.478 2.278-0.294 2.585-0.331 0.919-0.11 0.968-0.135 1.935-0.269 2.891-0.404 27.060-3.822 53.863-9.518 80.127-17.052 51.45-14.749 96.26-34.52 142.405-62.854 45.092-27.697 83.25-58.922 120.012-98.342 37.252-39.935 67.754-83.667 92.916-133.549 14.234-28.199 24.72-54.083 34.361-84.818 9.861-31.397 17.003-63.577 21.597-96.162 1.384-9.837 13.916-15.227 22.601-12.838 10.584 2.903 14.222 12.74 12.838 22.601-16.476 116.815-67.497 227.138-145.027 315.974-72.728 83.348-168.399 145.97-273.663 179.841-60.233 19.379-123.785 29.118-187.056 29.118 6.125-6.125 12.25-12.25 18.375-18.375 0 51.192 0 102.397 0 153.589 0 7.142 0 14.296 0 21.437 0 7.264-4.594 14.1-11.294 16.795-7.264 2.928-14.185 1.139-20.078-3.797-13.291-11.147-26.57-22.295-39.861-33.442-31.74-26.631-63.491-53.263-95.231-79.894-38.391-32.205-76.77-64.41-115.161-96.615-33.32-27.954-66.64-55.909-99.959-83.875-16.060-13.475-33.063-26.325-48.412-40.621-0.22-0.208-0.465-0.392-0.698-0.588-7.154-6.002-7.129-20.004 0-25.982 23.287-19.539 46.574-39.077 69.861-58.616 34.594-29.020 69.175-58.040 103.769-87.060 13.242-11.111 26.497-22.221 39.739-33.344 35.574-29.853 71.16-59.706 106.733-89.559 25.97-21.793 51.78-43.781 77.909-65.366 0.441-0.367 0.87-0.735 1.311-1.090 5.745-4.814 12.862-6.97 20.078-3.797 6.652 2.928 11.294 9.334 11.294 16.795 0 51.192 0 102.397 0 153.589 0 7.142 0 14.296 0 21.437-6.125-6.125-12.25-12.25-18.375-18.375 49.735 0 99.457 0.061 149.192 0 12.777-0.012 25.541-0.404 38.293-1.225 6.982-0.453 13.94-1.017 20.898-1.715 3.638-0.367 7.276-0.759 10.902-1.188 1.654-0.196 3.295-0.404 4.937-0.612 0.992-0.122 1.972-0.257 2.964-0.38-1.592 0.208-1.249 0.159 1.029-0.159 29.449-4.361 58.542-10.596 87.060-19.171 13.879-4.177 27.611-8.857 41.16-14.038 14.381-5.5 24.671-9.91 39.2-16.844 26.227-12.519 51.535-26.962 75.655-43.181 37.472-25.198 70.033-55.725 103.732-87.562 7.215-6.811 18.828-7.154 25.982 0 6.909 6.884 7.264 19.159 0.024 25.994z" />
<glyph unicode="&#xe952;" glyph-name="icon_search" d="M1031.101 8.869l-251.132 251.132c126.268 164.148 113.641 401.251-37.88 551.369-82.775 82.775-189.402 123.462-297.431 123.462s-214.655-40.686-297.431-123.462c-164.148-164.148-164.148-430.713 0-594.861 82.775-82.775 189.402-123.462 297.431-123.462 89.79 0 179.581 28.059 253.938 85.581l252.535-249.729c11.224-11.224 25.254-16.836 40.686-16.836 14.030 0 29.462 5.612 40.686 16.836 21.045 21.045 21.045 57.522-1.403 79.97zM446.060 206.688c-82.775 0-158.536 32.268-217.461 89.79-119.253 119.253-119.253 314.266 0 434.922 57.522 57.522 134.686 89.79 217.461 89.79s158.536-32.268 217.461-89.79 89.79-134.686 89.79-217.461c0-82.775-32.268-158.536-89.79-217.461s-136.089-89.79-217.461-89.79z" />
<glyph unicode="&#xe953;" glyph-name="icon_send" d="M1013.050 954.994c-6.995 5.013-16.538 6.249-24.58 3.181l-971.58-360.872c-9.952-3.775-17.014-14.136-16.89-24.78 0.125-10.643 7.43-20.837 17.468-24.376l441.26-153.256 153.255-441.26c3.54-10.037 13.733-17.34 24.376-17.467 10.644-0.13 21.004 6.942 24.78 16.89l360.872 971.58c5.151 12.994-0.381 22.762-8.963 30.362zM894.205 867.378l-421.597-421.597-369.258 128.099zM931.217 830.366l-293.498-790.853-128.099 369.257z" />
<glyph unicode="&#xe954;" glyph-name="icon_settings" d="M32.090 357.856c-27.461-18.226-39.113-55.088-27.646-87.649 6.553-18.839 14.335-37.68 23.142-55.7 14.744-30.718 48.532-47.51 84.166-41.573 30.716 5.12 65.94-7.782 91.723-33.584 25.598-25.598 38.52-60.819 33.4-91.743-5.734-35.426 10.855-69.216 41.571-83.96 18-8.807 36.861-16.587 55.702-23.142 8.375-3.072 16.999-4.505 25.598-4.505 24.779 0 48.514 11.672 62.050 32.151 17.816 26.827 52.423 43.415 90.105 43.415 37.883 0 72.494-16.586 90.31-43.415 18.226-27.439 55.087-39.112 87.626-27.646 18.861 6.553 37.496 14.334 55.722 23.142 30.718 14.744 47.305 48.533 41.549 83.96-5.12 30.924 7.802 66.145 33.4 91.743 25.804 25.803 61.027 38.704 91.744 33.584 35.426-5.937 69.4 10.855 84.166 41.573 8.805 18.021 16.586 36.86 23.141 55.7 11.469 32.561-0.205 69.422-27.666 87.649-26.807 17.816-43.598 52.423-43.598 90.103 0 37.886 16.791 72.495 43.598 90.311 27.463 18.224 39.135 55.087 27.666 87.648-6.553 18.839-14.334 37.475-23.141 55.497-14.766 30.716-48.533 47.508-84.166 41.775-30.718-5.12-65.94 7.575-91.744 33.378-25.598 25.804-38.52 61.025-33.4 91.743 5.754 35.429-10.832 69.422-41.549 84.167-18.226 8.805-36.861 16.586-55.722 23.141-32.539 11.469-69.4-0.205-87.626-27.647-17.816-26.826-52.425-43.618-90.31-43.618-37.681 0-72.289 16.792-90.105 43.618-18.226 27.442-55.088 38.911-87.649 27.647-18.839-6.758-37.7-14.334-55.702-23.141-30.716-14.745-47.305-48.738-41.571-84.167 5.12-30.718-7.802-65.939-33.4-91.743-25.781-25.803-61.006-38.704-91.723-33.378-35.633 5.734-69.422-11.059-84.166-41.775-8.805-18.022-16.587-36.658-23.142-55.497-11.469-32.561 0.185-69.422 27.646-87.648 26.827-17.816 43.394-52.423 43.394-90.311 0-37.68-16.567-72.287-43.394-90.103zM511.9 648.239c110.583 0 200.278-89.901 200.278-200.279s-89.695-200.073-200.278-200.073c-110.378 0-200.096 89.695-200.096 200.073s89.718 200.279 200.096 200.279z" />
<glyph unicode="&#xe955;" glyph-name="icon_speaker" d="M778.236 950.292l-340.61-278.093-190.785-18.324c-39.882-3.234-70.062-36.648-70.062-76.529v-258.691c0-39.882 30.181-73.296 70.062-76.529l190.785-18.324 340.61-278.093c28.025-22.635 68.984-3.234 68.984 33.414v938.833c0 35.57-42.037 54.972-68.984 32.336z" />
<glyph unicode="&#xe956;" glyph-name="icon_speaker_mute" d="M1016.433 917.213l-35.219 35.219c-10.225 10.225-24.994 10.225-35.219 0l-146.558-146.558v120.428c0 27.267-29.539 43.172-49.989 27.267l-314.702-234.039h-178.369c-17.042 0-31.811-14.769-31.811-32.947v-455.58l-215.861-215.861c-10.225-10.225-10.225-24.994 0-35.219l35.219-35.219c10.225-10.225 24.994-10.225 35.219 0l937.29 937.29c9.089 9.089 9.089 24.994 0 35.219zM749.447-57.569c20.45-15.906 49.989 0 49.989 27.267v555.558l-355.602-355.602 305.613-227.222z" />
<glyph unicode="&#xe957;" glyph-name="icon_stop-camera1" d="M76.801 704h-76.8v-511.999h588.8zM768 364.8c44.8-25.6 0 0 256-172.8v511.999l-256-166.4v166.4h-422.4l-256 256-89.599-89.599c211.199-211.199 64-64 934.399-934.399l89.599 89.599-256 256v83.2z" />
<glyph unicode="&#xe958;" glyph-name="icon_stop" d="M206.662 960h610.676c114.137 0 206.662-92.525 206.662-206.662v-610.676c0-114.137-92.525-206.662-206.662-206.662h-610.676c-114.137 0-206.662 92.525-206.662 206.662v610.676c0 114.137 92.525 206.662 206.662 206.662z" />
<glyph unicode="&#xe959;" glyph-name="icon_switch-camera" d="M270.859 386.901h33.667c3.424 0 6.236-2.571 6.644-5.973 5.667-46.478 26.373-89.725 59.79-123.164 39.935-39.765 92.831-61.872 149.003-61.872 53.873-0.387 104.721 19.661 143.963 56.513 2.764 2.594 2.764 7.031 0.080 9.717l-52.815 52.815c-24.121-24.178-56.684-37.672-91.226-37.672-34.292 0-66.492 13.801-91.124 38.207-17.51 17.51-29.093 39.549-33.974 63.249-0.842 4.108 2.469 7.908 6.656 7.908h28.558c6.019 0 9.034 7.27 4.79 11.526l-79.473 79.746c-2.628 2.64-6.918 2.651-9.558 0.011l-79.735-79.462c-4.278-4.256-1.274-11.549 4.756-11.549zM425.87 508.461c2.697-2.434 6.77-2.23 9.352 0.33 21.322 21.060 49.004 33.302 79.473 34.907 60.837 2.731 113.254-40.107 124.052-98.429 0.728-3.948-2.367-7.6-6.371-7.782l-26.612-1.229c-6.019-0.273-8.692-7.691-4.232-11.753l77.13-70.144c2.764-2.514 7.043-2.31 9.558 0.467l69.939 77.198c4.039 4.46 0.682 11.571-5.324 11.287l-35.738-1.696c-10.023 104.345-100.476 183.603-206.347 178.711-50.255-2.662-97.063-23.587-132.13-59.744-2.64-2.731-2.423-7.157 0.398-9.706l46.853-42.417zM936.458 23.36c48.264 0 87.541 39.288 87.541 87.586v542.502c0 48.264-39.275 87.541-87.541 87.541h-133.029l-66.071 131.652h-450.741l-66.071-131.652h-133.006c-48.264 0-87.541-39.275-87.541-87.541v-542.502c0-48.299 39.275-87.586 87.541-87.586h848.917zM274.911 652.88l66.071 131.652h342.027l66.071-131.652 186.834 0.569v-541.991l-847.79-0.523-0.569 541.946h187.357z" />
<glyph unicode="&#xe95a;" glyph-name="icon_view" d="M1011.483 482.57c-54.836 65.565-253.914 278.948-499.483 278.948s-444.648-213.383-499.483-277.756c-16.689-20.265-16.689-50.068 0-70.333 54.836-65.565 255.107-277.756 499.483-277.756s444.648 213.383 499.483 277.756c16.689 19.074 16.689 50.068 0 69.141zM512 269.187c-97.751 0-178.813 81.061-178.813 178.813s79.87 178.813 178.813 178.813 178.813-81.061 178.813-178.813-81.061-178.813-178.813-178.813z" />
</font>
</defs>
</svg>
