<svg height='100px' width='100px'  fill="#5d606c" xmlns="http://www.w3.org/2000/svg" xmlns:xlink="http://www.w3.org/1999/xlink" version="1.1" x="0px" y="0px" viewBox="0 0 100 100" style="enable-background:new 0 0 100 100;" xml:space="preserve"><path d="M28.2519531,42.9614258c-3.8818359,0-7.0390625,3.1577148-7.0390625,7.0385742s3.1572266,7.0385742,7.0390625,7.0385742  c3.8808594,0,7.0380859-3.1577148,7.0380859-7.0385742S32.1328125,42.9614258,28.2519531,42.9614258z M28.2519531,55.0385742  c-2.7783203,0-5.0390625-2.2602539-5.0390625-5.0385742s2.2607422-5.0385742,5.0390625-5.0385742  S33.2900391,47.2216797,33.2900391,50S31.0302734,55.0385742,28.2519531,55.0385742z"></path><path d="M50.3925781,42.9614258c-3.8808594,0-7.0380859,3.1577148-7.0380859,7.0385742s3.1572266,7.0385742,7.0380859,7.0385742  c3.8818359,0,7.0390625-3.1577148,7.0390625-7.0385742S54.2744141,42.9614258,50.3925781,42.9614258z M50.3925781,55.0385742  c-2.7783203,0-5.0380859-2.2602539-5.0380859-5.0385742s2.2597656-5.0385742,5.0380859-5.0385742  S55.4316406,47.2216797,55.4316406,50S53.1708984,55.0385742,50.3925781,55.0385742z"></path><path d="M72.5341797,42.9614258c-3.8808594,0-7.0380859,3.1577148-7.0380859,7.0385742s3.1572266,7.0385742,7.0380859,7.0385742  c3.8818359,0,7.0390625-3.1577148,7.0390625-7.0385742S76.4160156,42.9614258,72.5341797,42.9614258z M72.5341797,55.0385742  c-2.7783203,0-5.0380859-2.2602539-5.0380859-5.0385742s2.2597656-5.0385742,5.0380859-5.0385742  S77.5732422,47.2216797,77.5732422,50S75.3125,55.0385742,72.5341797,55.0385742z"></path></svg>