<svg height='100px' width='100px'  fill="#5d606c" xmlns:dc="http://purl.org/dc/elements/1.1/" xmlns:cc="http://creativecommons.org/ns#" xmlns:rdf="http://www.w3.org/1999/02/22-rdf-syntax-ns#" xmlns:svg="http://www.w3.org/2000/svg" xmlns="http://www.w3.org/2000/svg" xmlns:sodipodi="http://sodipodi.sourceforge.net/DTD/sodipodi-0.dtd" xmlns:inkscape="http://www.inkscape.org/namespaces/inkscape" version="1.1" x="0px" y="0px" viewBox="0 0 100 100"><g transform="translate(0,-952.36218)"><path style="text-indent:0;text-transform:none;direction:ltr;block-progression:tb;baseline-shift:baseline;color:#000000;enable-background:accumulate;" d="m 88.289264,963.6187 c -0.534571,-0.3831 -1.263815,-0.47751 -1.87829,-0.24303 l -74.246211,27.57715 c -0.760571,0.2885 -1.300226,1.0803 -1.290684,1.8937 0.0096,0.8133 0.567812,1.5923 1.334876,1.8628 l 33.720184,11.71148 11.711443,33.7202 c 0.270536,0.767 1.04944,1.3251 1.862788,1.3348 0.813384,0.01 1.605097,-0.5305 1.893699,-1.2907 l 27.577167,-74.24617 c 0.393647,-0.99299 -0.02913,-1.73948 -0.684968,-2.32023 z m -9.081939,6.69545 -32.217559,32.21755 -28.217937,-9.78908 z m 2.828425,2.82843 -22.428516,60.43542 -9.789042,-28.2179 z" fill="#5d606c" fill-opacity="1" stroke="none" marker="none" visibility="visible" display="inline" overflow="visible"></path></g></svg>