<svg height='100px' width='100px'  fill="#5d606c" xmlns="http://www.w3.org/2000/svg" xmlns:xlink="http://www.w3.org/1999/xlink" version="1.1" x="0px" y="0px" viewBox="0 0 100 100" style="enable-background:new 0 0 100 100;" xml:space="preserve"><g><path d="M52.5,64.6V22.9l9.9,9.2l5.5-5.8L51.2,10.7c-1.5-1.4-3.9-1.4-5.5,0L29.1,26.3l5.5,5.8l9.9-9.2v41.7H52.5z"></path><path d="M14.2,42v41.3c0,3.9,3.1,7,7,7h54.6c3.9,0,7-3.1,7-7V42c0-3.9-3.1-7-7-7H62.5v8h12.3v39.3H22.2V43h12.3v-8H21.2   C17.3,35,14.2,38.1,14.2,42z"></path></g></svg>