<svg height='100px' width='100px'  fill="#5d606c" xmlns="http://www.w3.org/2000/svg" xmlns:xlink="http://www.w3.org/1999/xlink" xml:space="preserve" style="shape-rendering:geometricPrecision;text-rendering:geometricPrecision;image-rendering:optimizeQuality;" viewBox="0 0 6.82666 6.82666" x="0px" y="0px" fill-rule="evenodd" clip-rule="evenodd"><defs><style type="text/css">
   
    .fil1 {fill:none}
    .fil0 {fill:#5d606c;fill-rule:nonzero}
   
  </style></defs><g><path class="fil0" d="M1.80667 1.14l2.53407 0c0.208878,0 0.398717,0.0853898 0.536287,0.222969 0.137579,0.137571 0.222969,0.327409 0.222969,0.536287l0 2.32333 0 0.08 -0.08 0 -3.21333 0 -0.08 0 0 -0.08 0 -3.00259 0 -0.08 0.08 0zm2.53407 0.16l-2.45407 0 0 2.84259 3.05333 0 0 -2.24333c0,-0.164713 -0.0674409,-0.314512 -0.176094,-0.423161 -0.10865,-0.108654 -0.258449,-0.176094 -0.423161,-0.176094z"></path><path class="fil0" d="M5.53203 5.68667l-4.2374 0 -0.08 0 0 -0.08 0 -1.38408 0 -0.08 0.08 0 4.2374 0 0.08 0 0 0.08 0 1.38408 0 0.08 -0.08 0zm-4.1574 -0.16l4.0774 0 0 -1.22408 -4.0774 0 0 1.22408z"></path><polygon class="fil0" points="2.2918,2.11202 4.53486,2.11202 4.53486,2.27202 2.2918,2.27202 "></polygon><polygon class="fil0" points="2.2918,2.67452 4.53486,2.67452 4.53486,2.83452 2.2918,2.83452 "></polygon><polygon class="fil0" points="2.2918,3.23702 4.53486,3.23702 4.53486,3.39702 2.2918,3.39702 "></polygon><path class="fil0" d="M2.82015 5.02897l0 -0.17263 0.396295 0 0 0.353957c-0.0757795,0.0516142 -0.142858,0.0869921 -0.20124,0.105551 -0.0583819,0.018752 -0.127587,0.0280276 -0.207618,0.0280276 -0.0985906,0 -0.178815,-0.016815 -0.24087,-0.0504528 -0.062248,-0.0334449 -0.110382,-0.0835118 -0.144406,-0.150012 -0.0342165,-0.0665 -0.0514213,-0.142665 -0.0514213,-0.228689 0,-0.0906654 0.018752,-0.169535 0.0560591,-0.236618 0.0375039,-0.0668858 0.0922126,-0.117728 0.164319,-0.152524 0.056252,-0.0268701 0.132031,-0.0402087 0.227142,-0.0402087 0.0916339,0 0.16026,0.00831102 0.205882,0.024937 0.0454252,0.016626 0.083122,0.0423346 0.11328,0.0773268 0.0299646,0.0347953 0.0525827,0.079063 0.0676614,0.132807l-0.247441 0.0440748c-0.010248,-0.0313189 -0.0276457,-0.0552874 -0.0520039,-0.0719134 -0.0241614,-0.016626 -0.0552874,-0.024937 -0.0929843,-0.024937 -0.056252,0 -0.101102,0.0195236 -0.134543,0.0585748 -0.0334449,0.0392402 -0.0502638,0.100909 -0.0502638,0.185579 0,0.0898898 0.0170118,0.154071 0.0508425,0.192539 0.0336378,0.0384724 0.0808031,0.0578031 0.141311,0.0578031 0.0286102,0 0.056063,-0.00425197 0.0819646,-0.0125669 0.0260984,-0.00831102 0.056063,-0.0224252 0.0895039,-0.0423346l0 -0.0782913 -0.171469 0zm0.55887 -0.529488l0.257106 0 0 0.830283 -0.257106 0 0 -0.830283zm0.442299 0l0.634457 0 0 0.178429 -0.376768 0 0 0.144984 0.321673 0 0 0.167606 -0.321673 0 0 0.339264 -0.257689 0 0 -0.830283z"></path></g><rect class="fil1" width="6.82666" height="6.82666"></rect></svg>