<svg height='100px' width='100px'  fill="#5d606c" xmlns="http://www.w3.org/2000/svg" xmlns:xlink="http://www.w3.org/1999/xlink" viewBox="0 0 24 24" version="1.1" x="0px" y="0px"><title>Smile</title><desc>Created with Sketch.</desc><g stroke="none" strokeWidth="1" fill="none" fill-rule="evenodd"><path d="M12,1 C18.0751322,1 23,5.92486775 23,12 C23,18.0751322 18.0751322,23 12,23 C5.92486775,23 1,18.0751322 1,12 C1,5.92486775 5.92486775,1 12,1 Z M12,2.5 C6.75329488,2.5 2.5,6.75329488 2.5,12 C2.5,17.2467051 6.75329488,21.5 12,21.5 C17.2467051,21.5 21.5,17.2467051 21.5,12 C21.5,6.75329488 17.2467051,2.5 12,2.5 Z M8.25,10.5 C7.55964406,10.5 7,9.94035594 7,9.25 C7,8.55964406 7.55964406,8 8.25,8 C8.94035594,8 9.5,8.55964406 9.5,9.25 C9.5,9.94035594 8.94035594,10.5 8.25,10.5 Z M15.75,10.5 C15.0596441,10.5 14.5,9.94035594 14.5,9.25 C14.5,8.55964406 15.0596441,8 15.75,8 C16.4403559,8 17,8.55964406 17,9.25 C17,9.94035594 16.4403559,10.5 15.75,10.5 Z M6.85688031,14.8858718 C6.64376919,14.5306866 6.75894298,14.0699914 7.11412818,13.8568803 C7.46931338,13.6437692 7.93000857,13.758943 8.14311969,14.1141282 C9.00637524,15.5528874 10.2611779,16.25 12,16.25 C13.7388221,16.25 14.9936248,15.5528874 15.8568803,14.1141282 C16.0699914,13.758943 16.5306866,13.6437692 16.8858718,13.8568803 C17.241057,14.0699914 17.3562308,14.5306866 17.1431197,14.8858718 C16.0063752,16.7804459 14.2611779,17.75 12,17.75 C9.73882213,17.75 7.99362476,16.7804459 6.85688031,14.8858718 Z" fill="#5d606c" fill-rule="nonzero"></path></g></svg>