<svg height='100px' width='100px'  fill="#5d606c" xmlns="http://www.w3.org/2000/svg" xmlns:xlink="http://www.w3.org/1999/xlink" version="1.1" x="0px" y="0px" viewBox="0 0 25.424 29.216" style="enable-background:new 0 0 25.424 29.216;" xml:space="preserve"><g><path d="M18.224,24.467c0.752,1.713-0.026,3.713-1.741,4.463c-1.713,0.752-3.711-0.027-4.462-1.742   c-0.202-0.457-0.284-0.936-0.278-1.406l5.635-2.471C17.727,23.623,18.022,24.008,18.224,24.467z"></path><path d="M0.824,15.513c-1.59-4-0.781-7.813,1.596-10.307c-0.098-0.15-0.197-0.29-0.271-0.462c-0.752-1.712,0.027-3.708,1.74-4.459   c1.713-0.752,3.711,0.03,4.463,1.741c0.071,0.162,0.11,0.33,0.152,0.497c3.561-0.072,7.076,2.096,8.913,5.784   c0,0,2.721,6.247,5.709,6.744c0.092,0.005,1.695,0.045,2.184,1.213c0.461,1.105-0.488,2.584-2.139,3.295L5.292,27.264   c-1.649,0.711-3.471,0.426-3.861-0.705c-0.385-1.115,0.46-2.152,0.54-2.244C3.658,21.723,0.824,15.513,0.824,15.513z"></path></g></svg>